<?xml version="1.0" encoding="UTF-8"?><svg xmlns="http://www.w3.org/2000/svg" xmlns:xlink="http://www.w3.org/1999/xlink" fill-opacity="1" color-rendering="auto" color-interpolation="auto" text-rendering="auto" stroke="black" stroke-linecap="square" width="1161" stroke-miterlimit="10" shape-rendering="auto" stroke-opacity="1" fill="black" stroke-dasharray="none" font-weight="normal" stroke-width="1" height="663" font-family="'Dialog'" font-style="normal" stroke-linejoin="miter" font-size="12px" stroke-dashoffset="0" image-rendering="auto">
  <!--Generated by ySVG 2.5-->
  <defs id="genericDefs"/>
  <g>
    <defs id="defs1">
      <linearGradient x1="-163" gradientUnits="userSpaceOnUse" x2="23" y1="531" y2="571" id="linearGradient1" spreadMethod="reflect">
        <stop stop-opacity="1" stop-color="rgb(204,255,204)" offset="0%"/>
        <stop stop-opacity="1" stop-color="rgb(153,255,204)" offset="100%"/>
      </linearGradient>
      <linearGradient x1="7" gradientUnits="userSpaceOnUse" x2="173" y1="315" y2="405" id="linearGradient2" spreadMethod="reflect">
        <stop stop-opacity="1" stop-color="rgb(204,255,204)" offset="0%"/>
        <stop stop-opacity="1" stop-color="rgb(204,255,204)" offset="100%"/>
      </linearGradient>
      <linearGradient x1="-357" gradientUnits="userSpaceOnUse" x2="-171" y1="334" y2="374" id="linearGradient3" spreadMethod="reflect">
        <stop stop-opacity="1" stop-color="rgb(204,255,204)" offset="0%"/>
        <stop stop-opacity="1" stop-color="rgb(153,255,204)" offset="100%"/>
      </linearGradient>
      <linearGradient x1="-163" gradientUnits="userSpaceOnUse" x2="23" y1="121" y2="161" id="linearGradient4" spreadMethod="reflect">
        <stop stop-opacity="1" stop-color="rgb(204,255,204)" offset="0%"/>
        <stop stop-opacity="1" stop-color="rgb(153,255,204)" offset="100%"/>
      </linearGradient>
      <linearGradient x1="-3" gradientUnits="userSpaceOnUse" x2="183" y1="37" y2="77" id="linearGradient5" spreadMethod="reflect">
        <stop stop-opacity="1" stop-color="rgb(204,255,204)" offset="0%"/>
        <stop stop-opacity="1" stop-color="rgb(153,255,204)" offset="100%"/>
      </linearGradient>
      <linearGradient x1="171" gradientUnits="userSpaceOnUse" x2="357" y1="121" y2="161" id="linearGradient6" spreadMethod="reflect">
        <stop stop-opacity="1" stop-color="rgb(204,255,204)" offset="0%"/>
        <stop stop-opacity="1" stop-color="rgb(153,255,204)" offset="100%"/>
      </linearGradient>
      <linearGradient x1="321" gradientUnits="userSpaceOnUse" x2="507" y1="340" y2="380" id="linearGradient7" spreadMethod="reflect">
        <stop stop-opacity="1" stop-color="rgb(204,255,204)" offset="0%"/>
        <stop stop-opacity="1" stop-color="rgb(153,255,204)" offset="100%"/>
      </linearGradient>
      <linearGradient x1="-3" gradientUnits="userSpaceOnUse" x2="183" y1="616" y2="656" id="linearGradient8" spreadMethod="reflect">
        <stop stop-opacity="1" stop-color="rgb(204,255,204)" offset="0%"/>
        <stop stop-opacity="1" stop-color="rgb(153,255,204)" offset="100%"/>
      </linearGradient>
      <linearGradient x1="460" gradientUnits="userSpaceOnUse" x2="579" y1="60" y2="100" id="linearGradient9" spreadMethod="reflect">
        <stop stop-opacity="1" stop-color="rgb(153,255,204)" offset="0%"/>
        <stop stop-opacity="1" stop-color="rgb(0,204,153)" offset="100%"/>
      </linearGradient>
      <linearGradient x1="505" gradientUnits="userSpaceOnUse" x2="624" y1="130" y2="170" id="linearGradient10" spreadMethod="reflect">
        <stop stop-opacity="1" stop-color="rgb(153,255,204)" offset="0%"/>
        <stop stop-opacity="1" stop-color="rgb(0,204,153)" offset="100%"/>
      </linearGradient>
      <linearGradient x1="543" gradientUnits="userSpaceOnUse" x2="662" y1="200" y2="240" id="linearGradient11" spreadMethod="reflect">
        <stop stop-opacity="1" stop-color="rgb(153,255,204)" offset="0%"/>
        <stop stop-opacity="1" stop-color="rgb(0,204,153)" offset="100%"/>
      </linearGradient>
      <linearGradient x1="604" gradientUnits="userSpaceOnUse" x2="723" y1="270" y2="310" id="linearGradient12" spreadMethod="reflect">
        <stop stop-opacity="1" stop-color="rgb(153,255,204)" offset="0%"/>
        <stop stop-opacity="1" stop-color="rgb(0,204,153)" offset="100%"/>
      </linearGradient>
      <linearGradient x1="655" gradientUnits="userSpaceOnUse" x2="774" y1="340" y2="380" id="linearGradient13" spreadMethod="reflect">
        <stop stop-opacity="1" stop-color="rgb(153,255,204)" offset="0%"/>
        <stop stop-opacity="1" stop-color="rgb(0,204,153)" offset="100%"/>
      </linearGradient>
      <linearGradient x1="604" gradientUnits="userSpaceOnUse" x2="723" y1="410" y2="450" id="linearGradient14" spreadMethod="reflect">
        <stop stop-opacity="1" stop-color="rgb(153,255,204)" offset="0%"/>
        <stop stop-opacity="1" stop-color="rgb(0,204,153)" offset="100%"/>
      </linearGradient>
      <linearGradient x1="543" gradientUnits="userSpaceOnUse" x2="662" y1="480" y2="520" id="linearGradient15" spreadMethod="reflect">
        <stop stop-opacity="1" stop-color="rgb(153,255,204)" offset="0%"/>
        <stop stop-opacity="1" stop-color="rgb(0,204,153)" offset="100%"/>
      </linearGradient>
      <linearGradient x1="505" gradientUnits="userSpaceOnUse" x2="624" y1="555" y2="595" id="linearGradient16" spreadMethod="reflect">
        <stop stop-opacity="1" stop-color="rgb(153,255,204)" offset="0%"/>
        <stop stop-opacity="1" stop-color="rgb(0,204,153)" offset="100%"/>
      </linearGradient>
      <linearGradient x1="460" gradientUnits="userSpaceOnUse" x2="579" y1="630" y2="670" id="linearGradient17" spreadMethod="reflect">
        <stop stop-opacity="1" stop-color="rgb(153,255,204)" offset="0%"/>
        <stop stop-opacity="1" stop-color="rgb(0,204,153)" offset="100%"/>
      </linearGradient>
      <clipPath clipPathUnits="userSpaceOnUse" id="clipPath1">
        <path d="M0 0 L1161 0 L1161 663 L0 663 L0 0 Z"/>
      </clipPath>
      <clipPath clipPathUnits="userSpaceOnUse" id="clipPath2">
        <path d="M0 0 L0 17 L185 17 L185 0 Z"/>
      </clipPath>
      <clipPath clipPathUnits="userSpaceOnUse" id="clipPath3">
        <path d="M0 0 L0 17 L93 17 L93 0 Z"/>
      </clipPath>
      <clipPath clipPathUnits="userSpaceOnUse" id="clipPath4">
        <path d="M0 0 L0 17 L111 17 L111 0 Z"/>
      </clipPath>
      <clipPath clipPathUnits="userSpaceOnUse" id="clipPath5">
        <path d="M0 0 L0 17 L191 17 L191 0 Z"/>
      </clipPath>
      <clipPath clipPathUnits="userSpaceOnUse" id="clipPath6">
        <path d="M0 0 L0 17 L129 17 L129 0 Z"/>
      </clipPath>
      <clipPath clipPathUnits="userSpaceOnUse" id="clipPath7">
        <path d="M0 0 L0 17 L86 17 L86 0 Z"/>
      </clipPath>
      <clipPath clipPathUnits="userSpaceOnUse" id="clipPath8">
        <path d="M0 0 L0 17 L59 17 L59 0 Z"/>
      </clipPath>
      <clipPath clipPathUnits="userSpaceOnUse" id="clipPath9">
        <path d="M0 0 L0 17 L97 17 L97 0 Z"/>
      </clipPath>
      <clipPath clipPathUnits="userSpaceOnUse" id="clipPath10">
        <path d="M0 0 L0 17 L141 17 L141 0 Z"/>
      </clipPath>
      <clipPath clipPathUnits="userSpaceOnUse" id="clipPath11">
        <path d="M0 0 L0 17 L122 17 L122 0 Z"/>
      </clipPath>
      <clipPath clipPathUnits="userSpaceOnUse" id="clipPath12">
        <path d="M0 0 L0 17 L125 17 L125 0 Z"/>
      </clipPath>
      <clipPath clipPathUnits="userSpaceOnUse" id="clipPath13">
        <path d="M0 0 L0 17 L108 17 L108 0 Z"/>
      </clipPath>
      <clipPath clipPathUnits="userSpaceOnUse" id="clipPath14">
        <path d="M0 0 L0 17 L142 17 L142 0 Z"/>
      </clipPath>
      <clipPath clipPathUnits="userSpaceOnUse" id="clipPath15">
        <path d="M0 0 L0 17 L104 17 L104 0 Z"/>
      </clipPath>
      <clipPath clipPathUnits="userSpaceOnUse" id="clipPath16">
        <path d="M0 0 L0 17 L102 17 L102 0 Z"/>
      </clipPath>
      <clipPath clipPathUnits="userSpaceOnUse" id="clipPath17">
        <path d="M0 0 L0 17 L115 17 L115 0 Z"/>
      </clipPath>
      <script type="text/ecmascript"><![CDATA[      var SVGDocument = null;
      var SVGRoot = null;
      var TrueCoords = null;
      var lastElement = null;
      var initialized = null;
      var tipGroup;
      function Init(evt)
      {
         SVGDocument = evt.target.ownerDocument;
         SVGRoot = SVGDocument.documentElement;
         TrueCoords = SVGRoot.createSVGPoint();
         initialized = evt;
      };
      function GetTrueCoords(evt)
      {
         var newScale = SVGRoot.currentScale;
         var translation = SVGRoot.currentTranslate;
         TrueCoords.x = (evt.clientX - translation.x)/newScale;
         TrueCoords.y = (evt.clientY - translation.y)/newScale;
      };
      function HideTooltip( evt )
      {
         if(initialized == null) {
           Init(evt);
         }
         if(tipGroup != null) {
           tipGroup.setAttributeNS(null, 'visibility', 'hidden');
         }
      };
      function ShowTooltip( evt )
      {
         if(initialized == null) {
           Init(evt);
         }
         GetTrueCoords( evt );
         var tipScale = 1/SVGRoot.currentScale;
         var targetElement = evt.currentTarget;
         if ( lastElement != targetElement )
         {
            var targetId = targetElement.getAttributeNS(null, 'id');
            var tipId = 'tooltip.' + targetId;
            tipGroup = SVGDocument.getElementById(tipId);
            var xPos = TrueCoords.x + (10 * tipScale);
            var yPos = TrueCoords.y + (10 * tipScale);
            tipGroup.setAttributeNS(null, 'transform', 'translate(' + xPos + ',' + yPos + ') scale(' + tipScale + ')');
            tipGroup.setAttributeNS(null, 'visibility', 'visible');
         }
      };
]]></script>
    </defs>
    <g onmouseout="HideTooltip(evt)" id="y.node.0" onmousemove="ShowTooltip(evt)">
      <a target="_top" xlink:type="simple" xlink:href="/server-api/installation.html" xlink:show="new">
        <g fill="url(#linearGradient1)" text-rendering="geometricPrecision" shape-rendering="geometricPrecision" transform="matrix(1,0,0,1,372,-22)" stroke="url(#linearGradient1)">
          <rect x="-163" y="531" width="186" rx="20" ry="20" height="40" stroke="none"/>
        </g>
        <g text-rendering="geometricPrecision" stroke-miterlimit="1.45" shape-rendering="geometricPrecision" transform="matrix(1,0,0,1,372,-22)" stroke-linecap="butt">
          <rect x="-163" y="531" fill="none" width="186" rx="20" ry="20" height="40"/>
        </g>
        <g>
          <g text-rendering="geometricPrecision" stroke-miterlimit="1.45" shape-rendering="geometricPrecision" font-family="sans-serif" transform="matrix(1,0,0,1,372,-22)" stroke-linecap="butt">
            <text x="-103.2314" xml:space="preserve" y="555.1543" stroke="none">Installation</text>
          </g>
        </g>
      </a>
    </g>
    <g onmouseout="HideTooltip(evt)" id="y.node.1" onmousemove="ShowTooltip(evt)">
      <a target="_top" xlink:type="simple" xlink:href="/server-api.html" xlink:show="new">
        <g fill="url(#linearGradient2)" text-rendering="geometricPrecision" shape-rendering="geometricPrecision" transform="matrix(1,0,0,1,372,-22)" stroke="url(#linearGradient2)">
          <ellipse rx="83" ry="45" cx="90" cy="360" stroke="none"/>
        </g>
        <g text-rendering="geometricPrecision" stroke-miterlimit="1.45" shape-rendering="geometricPrecision" transform="matrix(1,0,0,1,372,-22)" stroke-linecap="butt">
          <ellipse rx="83" fill="none" ry="45" cx="90" cy="360"/>
        </g>
        <g>
          <g text-rendering="geometricPrecision" stroke-miterlimit="1.45" shape-rendering="geometricPrecision" font-family="sans-serif" transform="matrix(1,0,0,1,372,-22)" stroke-linecap="butt">
            <text x="57.0176" xml:space="preserve" y="357.1699" stroke="none">Server API </text>
            <text x="61.7812" xml:space="preserve" y="371.1387" stroke="none">Port xxxx</text>
          </g>
        </g>
      </a>
    </g>
    <g onmouseout="HideTooltip(evt)" id="y.node.2" onmousemove="ShowTooltip(evt)">
      <a target="_top" xlink:type="simple" xlink:href="/server-api/helper.html" xlink:show="new">
        <g fill="url(#linearGradient3)" text-rendering="geometricPrecision" shape-rendering="geometricPrecision" transform="matrix(1,0,0,1,372,-22)" stroke="url(#linearGradient3)">
          <rect x="-357" y="334" width="186" rx="20" ry="20" height="40" stroke="none"/>
        </g>
        <g text-rendering="geometricPrecision" stroke-miterlimit="1.45" shape-rendering="geometricPrecision" transform="matrix(1,0,0,1,372,-22)" stroke-linecap="butt">
          <rect x="-357" y="334" fill="none" width="186" rx="20" ry="20" height="40"/>
        </g>
        <g>
          <g text-rendering="geometricPrecision" stroke-miterlimit="1.45" shape-rendering="geometricPrecision" font-family="sans-serif" transform="matrix(1,0,0,1,372,-22)" stroke-linecap="butt">
            <text x="-283.8369" xml:space="preserve" y="358.1543" stroke="none">Helper</text>
          </g>
        </g>
      </a>
    </g>
    <g onmouseout="HideTooltip(evt)" id="y.node.3" onmousemove="ShowTooltip(evt)">
      <a target="_top" xlink:type="simple" xlink:href="/server-api/hooks.html" xlink:show="new">
        <g fill="url(#linearGradient4)" text-rendering="geometricPrecision" shape-rendering="geometricPrecision" transform="matrix(1,0,0,1,372,-22)" stroke="url(#linearGradient4)">
          <rect x="-163" y="121" width="186" rx="20" ry="20" height="40" stroke="none"/>
        </g>
        <g text-rendering="geometricPrecision" stroke-miterlimit="1.45" shape-rendering="geometricPrecision" transform="matrix(1,0,0,1,372,-22)" stroke-linecap="butt">
          <rect x="-163" y="121" fill="none" width="186" rx="20" ry="20" height="40"/>
        </g>
        <g>
          <g text-rendering="geometricPrecision" stroke-miterlimit="1.45" shape-rendering="geometricPrecision" font-family="sans-serif" transform="matrix(1,0,0,1,372,-22)" stroke-linecap="butt">
            <text x="-88.4541" xml:space="preserve" y="145.1543" stroke="none">Hooks</text>
          </g>
        </g>
      </a>
    </g>
    <g onmouseout="HideTooltip(evt)" id="y.node.4" onmousemove="ShowTooltip(evt)">
      <a target="_top" xlink:type="simple" xlink:href="/server-api/middleware.html" xlink:show="new">
        <g fill="url(#linearGradient5)" text-rendering="geometricPrecision" shape-rendering="geometricPrecision" transform="matrix(1,0,0,1,372,-22)" stroke="url(#linearGradient5)">
          <rect x="-3" y="37" width="186" rx="20" ry="20" height="40" stroke="none"/>
        </g>
        <g text-rendering="geometricPrecision" stroke-miterlimit="1.45" shape-rendering="geometricPrecision" transform="matrix(1,0,0,1,372,-22)" stroke-linecap="butt">
          <rect x="-3" y="37" fill="none" width="186" rx="20" ry="20" height="40"/>
        </g>
        <g>
          <g text-rendering="geometricPrecision" stroke-miterlimit="1.45" shape-rendering="geometricPrecision" font-family="sans-serif" transform="matrix(1,0,0,1,372,-22)" stroke-linecap="butt">
            <text x="55.4385" xml:space="preserve" y="61.1543" stroke="none">Middleware</text>
          </g>
        </g>
      </a>
    </g>
    <g onmouseout="HideTooltip(evt)" id="y.node.5" onmousemove="ShowTooltip(evt)">
      <a target="_top" xlink:type="simple" xlink:href="/server-api/models.html" xlink:show="new">
        <g fill="url(#linearGradient6)" text-rendering="geometricPrecision" shape-rendering="geometricPrecision" transform="matrix(1,0,0,1,372,-22)" stroke="url(#linearGradient6)">
          <rect x="171" y="121" width="186" rx="20" ry="20" height="40" stroke="none"/>
        </g>
        <g text-rendering="geometricPrecision" stroke-miterlimit="1.45" shape-rendering="geometricPrecision" transform="matrix(1,0,0,1,372,-22)" stroke-linecap="butt">
          <rect x="171" y="121" fill="none" width="186" rx="20" ry="20" height="40"/>
        </g>
        <g>
          <g text-rendering="geometricPrecision" stroke-miterlimit="1.45" shape-rendering="geometricPrecision" font-family="sans-serif" transform="matrix(1,0,0,1,372,-22)" stroke-linecap="butt">
            <text x="242.8594" xml:space="preserve" y="145.1543" stroke="none">Models</text>
          </g>
        </g>
      </a>
    </g>
    <g onmouseout="HideTooltip(evt)" id="y.node.6" onmousemove="ShowTooltip(evt)">
      <a target="_top" xlink:type="simple" xlink:href="/server-api/services.html" xlink:show="new">
        <g fill="url(#linearGradient7)" text-rendering="geometricPrecision" shape-rendering="geometricPrecision" transform="matrix(1,0,0,1,372,-22)" stroke="url(#linearGradient7)">
          <rect x="321" y="340" width="186" rx="20" ry="20" height="40" stroke="none"/>
        </g>
        <g text-rendering="geometricPrecision" stroke-miterlimit="1.45" shape-rendering="geometricPrecision" transform="matrix(1,0,0,1,372,-22)" stroke-linecap="butt">
          <rect x="321" y="340" fill="none" width="186" rx="20" ry="20" height="40"/>
        </g>
        <g>
          <g text-rendering="geometricPrecision" stroke-miterlimit="1.45" shape-rendering="geometricPrecision" font-family="sans-serif" transform="matrix(1,0,0,1,372,-22)" stroke-linecap="butt">
            <text x="388.6992" xml:space="preserve" y="364.1543" stroke="none">Services</text>
          </g>
        </g>
      </a>
    </g>
    <g onmouseout="HideTooltip(evt)" id="y.node.7" onmousemove="ShowTooltip(evt)">
      <a target="_top" xlink:type="simple" xlink:href="/server-api/node-modules.html" xlink:show="new">
        <g fill="url(#linearGradient8)" text-rendering="geometricPrecision" shape-rendering="geometricPrecision" transform="matrix(1,0,0,1,372,-22)" stroke="url(#linearGradient8)">
          <rect x="-3" y="616" width="186" rx="20" ry="20" height="40" stroke="none"/>
        </g>
        <g text-rendering="geometricPrecision" stroke-miterlimit="1.45" shape-rendering="geometricPrecision" transform="matrix(1,0,0,1,372,-22)" stroke-linecap="butt">
          <rect x="-3" y="616" fill="none" width="186" rx="20" ry="20" height="40"/>
        </g>
        <g>
          <g text-rendering="geometricPrecision" stroke-miterlimit="1.45" shape-rendering="geometricPrecision" font-family="sans-serif" transform="matrix(1,0,0,1,372,-22)" stroke-linecap="butt">
            <text x="47.4902" xml:space="preserve" y="640.1543" stroke="none">Node Modules</text>
          </g>
        </g>
      </a>
    </g>
    <g onmouseout="HideTooltip(evt)" id="y.node.8" onmousemove="ShowTooltip(evt)">
      <a target="_top" xlink:type="simple" xlink:href="/server-api/services/users.html" xlink:show="new">
        <g fill="url(#linearGradient9)" text-rendering="geometricPrecision" shape-rendering="geometricPrecision" transform="matrix(1,0,0,1,372,-22)" stroke="url(#linearGradient9)">
          <rect x="460" y="60" width="119" rx="20" ry="20" height="40" stroke="none"/>
        </g>
        <g text-rendering="geometricPrecision" stroke-miterlimit="1.45" shape-rendering="geometricPrecision" transform="matrix(1,0,0,1,372,-22)" stroke-linecap="butt">
          <rect x="460" y="60" fill="none" width="119" rx="20" ry="20" height="40"/>
        </g>
        <g>
          <g text-rendering="geometricPrecision" stroke-miterlimit="1.45" shape-rendering="geometricPrecision" font-family="sans-serif" transform="matrix(1,0,0,1,372,-22)" stroke-linecap="butt">
            <text x="502.6982" xml:space="preserve" y="84.1543" stroke="none">Users</text>
          </g>
        </g>
      </a>
    </g>
    <g onmouseout="HideTooltip(evt)" id="y.node.9" onmousemove="ShowTooltip(evt)">
      <a target="_top" xlink:type="simple" xlink:href="/server-api/services/contributions.html" xlink:show="new">
        <g fill="url(#linearGradient10)" text-rendering="geometricPrecision" shape-rendering="geometricPrecision" transform="matrix(1,0,0,1,372,-22)" stroke="url(#linearGradient10)">
          <rect x="505" y="130" width="119" rx="20" ry="20" height="40" stroke="none"/>
        </g>
        <g text-rendering="geometricPrecision" stroke-miterlimit="1.45" shape-rendering="geometricPrecision" transform="matrix(1,0,0,1,372,-22)" stroke-linecap="butt">
          <rect x="505" y="130" fill="none" width="119" rx="20" ry="20" height="40"/>
        </g>
        <g>
          <g text-rendering="geometricPrecision" stroke-miterlimit="1.45" shape-rendering="geometricPrecision" font-family="sans-serif" transform="matrix(1,0,0,1,372,-22)" stroke-linecap="butt">
            <text x="524.1201" xml:space="preserve" y="154.1543" stroke="none">Contributions</text>
          </g>
        </g>
      </a>
    </g>
    <g onmouseout="HideTooltip(evt)" id="y.node.10" onmousemove="ShowTooltip(evt)">
      <a target="_top" xlink:type="simple" xlink:href="/server-api/services/comments.html" xlink:show="new">
        <g fill="url(#linearGradient11)" text-rendering="geometricPrecision" shape-rendering="geometricPrecision" transform="matrix(1,0,0,1,372,-22)" stroke="url(#linearGradient11)">
          <rect x="543" y="200" width="119" rx="20" ry="20" height="40" stroke="none"/>
        </g>
        <g text-rendering="geometricPrecision" stroke-miterlimit="1.45" shape-rendering="geometricPrecision" transform="matrix(1,0,0,1,372,-22)" stroke-linecap="butt">
          <rect x="543" y="200" fill="none" width="119" rx="20" ry="20" height="40"/>
        </g>
        <g>
          <g text-rendering="geometricPrecision" stroke-miterlimit="1.45" shape-rendering="geometricPrecision" font-family="sans-serif" transform="matrix(1,0,0,1,372,-22)" stroke-linecap="butt">
            <text x="569.9775" xml:space="preserve" y="224.1543" stroke="none">Comments</text>
          </g>
        </g>
      </a>
    </g>
    <g onmouseout="HideTooltip(evt)" id="y.node.11" onmousemove="ShowTooltip(evt)">
      <a target="_top" xlink:type="simple" xlink:href="/server-api/services/categories.html" xlink:show="new">
        <g fill="url(#linearGradient12)" text-rendering="geometricPrecision" shape-rendering="geometricPrecision" transform="matrix(1,0,0,1,372,-22)" stroke="url(#linearGradient12)">
          <rect x="604" y="270" width="119" rx="20" ry="20" height="40" stroke="none"/>
        </g>
        <g text-rendering="geometricPrecision" stroke-miterlimit="1.45" shape-rendering="geometricPrecision" transform="matrix(1,0,0,1,372,-22)" stroke-linecap="butt">
          <rect x="604" y="270" fill="none" width="119" rx="20" ry="20" height="40"/>
        </g>
        <g>
          <g text-rendering="geometricPrecision" stroke-miterlimit="1.45" shape-rendering="geometricPrecision" font-family="sans-serif" transform="matrix(1,0,0,1,372,-22)" stroke-linecap="butt">
            <text x="631.1592" xml:space="preserve" y="294.1543" stroke="none">Categories</text>
          </g>
        </g>
      </a>
    </g>
    <g onmouseout="HideTooltip(evt)" id="y.node.12" onmousemove="ShowTooltip(evt)">
      <a target="_top" xlink:type="simple" xlink:href="/server-api/services/projects.html" xlink:show="new">
        <g fill="url(#linearGradient13)" text-rendering="geometricPrecision" shape-rendering="geometricPrecision" transform="matrix(1,0,0,1,372,-22)" stroke="url(#linearGradient13)">
          <rect x="655" y="340" width="119" rx="20" ry="20" height="40" stroke="none"/>
        </g>
        <g text-rendering="geometricPrecision" stroke-miterlimit="1.45" shape-rendering="geometricPrecision" transform="matrix(1,0,0,1,372,-22)" stroke-linecap="butt">
          <rect x="655" y="340" fill="none" width="119" rx="20" ry="20" height="40"/>
        </g>
        <g>
          <g text-rendering="geometricPrecision" stroke-miterlimit="1.45" shape-rendering="geometricPrecision" font-family="sans-serif" transform="matrix(1,0,0,1,372,-22)" stroke-linecap="butt">
            <text x="690.6084" xml:space="preserve" y="364.1543" stroke="none">Projects</text>
          </g>
        </g>
      </a>
    </g>
    <g onmouseout="HideTooltip(evt)" id="y.node.13" onmousemove="ShowTooltip(evt)">
      <a target="_top" xlink:type="simple" xlink:href="/server-api/services/organizations.html" xlink:show="new">
        <g fill="url(#linearGradient14)" text-rendering="geometricPrecision" shape-rendering="geometricPrecision" transform="matrix(1,0,0,1,372,-22)" stroke="url(#linearGradient14)">
          <rect x="604" y="410" width="119" rx="20" ry="20" height="40" stroke="none"/>
        </g>
        <g text-rendering="geometricPrecision" stroke-miterlimit="1.45" shape-rendering="geometricPrecision" transform="matrix(1,0,0,1,372,-22)" stroke-linecap="butt">
          <rect x="604" y="410" fill="none" width="119" rx="20" ry="20" height="40"/>
        </g>
        <g>
          <g text-rendering="geometricPrecision" stroke-miterlimit="1.45" shape-rendering="geometricPrecision" font-family="sans-serif" transform="matrix(1,0,0,1,372,-22)" stroke-linecap="butt">
            <text x="621.9102" xml:space="preserve" y="434.1543" stroke="none">Organizations</text>
          </g>
        </g>
      </a>
    </g>
    <g onmouseout="HideTooltip(evt)" id="y.node.14" onmousemove="ShowTooltip(evt)">
      <a target="_top" xlink:type="simple" xlink:href="/server-api/services/badges.html" xlink:show="new">
        <g fill="url(#linearGradient15)" text-rendering="geometricPrecision" shape-rendering="geometricPrecision" transform="matrix(1,0,0,1,372,-22)" stroke="url(#linearGradient15)">
          <rect x="543" y="480" width="119" rx="20" ry="20" height="40" stroke="none"/>
        </g>
        <g text-rendering="geometricPrecision" stroke-miterlimit="1.45" shape-rendering="geometricPrecision" transform="matrix(1,0,0,1,372,-22)" stroke-linecap="butt">
          <rect x="543" y="480" fill="none" width="119" rx="20" ry="20" height="40"/>
        </g>
        <g>
          <g text-rendering="geometricPrecision" stroke-miterlimit="1.45" shape-rendering="geometricPrecision" font-family="sans-serif" transform="matrix(1,0,0,1,372,-22)" stroke-linecap="butt">
            <text x="580.2725" xml:space="preserve" y="504.1543" stroke="none">Badges</text>
          </g>
        </g>
      </a>
    </g>
    <g onmouseout="HideTooltip(evt)" id="y.node.15" onmousemove="ShowTooltip(evt)">
      <a target="_top" xlink:type="simple" xlink:href="/server-api/services/follows.html" xlink:show="new">
        <g fill="url(#linearGradient16)" text-rendering="geometricPrecision" shape-rendering="geometricPrecision" transform="matrix(1,0,0,1,372,-22)" stroke="url(#linearGradient16)">
          <rect x="505" y="555" width="119" rx="20" ry="20" height="40" stroke="none"/>
        </g>
        <g text-rendering="geometricPrecision" stroke-miterlimit="1.45" shape-rendering="geometricPrecision" transform="matrix(1,0,0,1,372,-22)" stroke-linecap="butt">
          <rect x="505" y="555" fill="none" width="119" rx="20" ry="20" height="40"/>
        </g>
        <g>
          <g text-rendering="geometricPrecision" stroke-miterlimit="1.45" shape-rendering="geometricPrecision" font-family="sans-serif" transform="matrix(1,0,0,1,372,-22)" stroke-linecap="butt">
            <text x="542.3398" xml:space="preserve" y="579.1543" stroke="none">Follows</text>
          </g>
        </g>
      </a>
    </g>
    <g onmouseout="HideTooltip(evt)" id="y.node.16" onmousemove="ShowTooltip(evt)">
      <a target="_top" xlink:type="simple" xlink:href="/server-api/services/emotions.html" xlink:show="new">
        <g fill="url(#linearGradient17)" text-rendering="geometricPrecision" shape-rendering="geometricPrecision" transform="matrix(1,0,0,1,372,-22)" stroke="url(#linearGradient17)">
          <rect x="460" y="630" width="119" rx="20" ry="20" height="40" stroke="none"/>
        </g>
        <g text-rendering="geometricPrecision" stroke-miterlimit="1.45" shape-rendering="geometricPrecision" transform="matrix(1,0,0,1,372,-22)" stroke-linecap="butt">
          <rect x="460" y="630" fill="none" width="119" rx="20" ry="20" height="40"/>
        </g>
        <g>
          <g text-rendering="geometricPrecision" stroke-miterlimit="1.45" shape-rendering="geometricPrecision" font-family="sans-serif" transform="matrix(1,0,0,1,372,-22)" stroke-linecap="butt">
            <text x="491.5742" xml:space="preserve" y="654.1543" stroke="none">Emotions</text>
          </g>
        </g>
      </a>
    </g>
    <g id="y.edge.5">
      <g text-rendering="geometricPrecision" stroke-miterlimit="1.45" shape-rendering="geometricPrecision" transform="matrix(1,0,0,1,372,-22)" stroke-linecap="butt">
        <path fill="none" d="M55.6836 400.9652 L-48.0783 524.8311"/>
      </g>
      <g text-rendering="geometricPrecision" stroke-miterlimit="1.45" shape-rendering="geometricPrecision" transform="matrix(1,0,0,1,372,-22)" stroke-linecap="butt">
        <path d="M-53.2156 530.9636 L-41.6769 524.9755 L-47.4362 524.0645 L-49.3426 518.554 Z" stroke="none"/>
      </g>
    </g>
    <g id="y.edge.4">
      <g text-rendering="geometricPrecision" stroke-miterlimit="1.45" shape-rendering="geometricPrecision" transform="matrix(1,0,0,1,372,-22)" stroke-linecap="butt">
        <path fill="none" d="M7.0745 358.5945 L-163.0509 355.711"/>
        <path d="M-171.0498 355.5754 L-159.1362 360.778 L-162.0511 355.7279 L-158.9668 350.7795 Z" stroke="none"/>
      </g>
    </g>
    <g id="y.edge.0">
      <g text-rendering="geometricPrecision" stroke-miterlimit="1.45" shape-rendering="geometricPrecision" transform="matrix(1,0,0,1,372,-22)" stroke-linecap="butt">
        <path fill="none" d="M59.4336 318.1622 L-50.6656 167.4639"/>
        <path d="M-55.385 161.0043 L-52.3432 173.6434 L-50.0757 168.2714 L-44.2686 167.7441 Z" stroke="none"/>
      </g>
    </g>
    <g id="y.edge.1">
      <g text-rendering="geometricPrecision" stroke-miterlimit="1.45" shape-rendering="geometricPrecision" transform="matrix(1,0,0,1,372,-22)" stroke-linecap="butt">
        <path fill="none" d="M90 314.9865 L90 84.9977"/>
        <path d="M90 76.9977 L85 88.9977 L90 85.9977 L95 88.9977 Z" stroke="none"/>
      </g>
    </g>
    <g id="y.edge.2">
      <g text-rendering="geometricPrecision" stroke-miterlimit="1.45" shape-rendering="geometricPrecision" transform="matrix(1,0,0,1,372,-22)" stroke-linecap="butt">
        <path fill="none" d="M122.8162 318.6969 L243.1161 167.2849"/>
        <path d="M248.0927 161.0213 L236.713 167.3064 L242.494 168.0679 L244.5426 173.5271 Z" stroke="none"/>
      </g>
    </g>
    <g id="y.edge.3">
      <g text-rendering="geometricPrecision" stroke-miterlimit="1.45" shape-rendering="geometricPrecision" transform="matrix(1,0,0,1,372,-22)" stroke-linecap="butt">
        <path fill="none" d="M172.9814 360 L312.9832 360"/>
        <path d="M320.9832 360 L308.9832 355 L311.9832 360 L308.9832 365 Z" stroke="none"/>
      </g>
    </g>
    <g id="y.edge.6">
      <g text-rendering="geometricPrecision" stroke-miterlimit="1.45" shape-rendering="geometricPrecision" transform="matrix(1,0,0,1,372,-22)" stroke-linecap="butt">
        <path fill="none" d="M90 404.978 L90 608.0056"/>
        <path d="M90 616.0056 L95 604.0056 L90 607.0056 L85 604.0056 Z" stroke="none"/>
      </g>
    </g>
    <g id="y.edge.15">
      <g text-rendering="geometricPrecision" stroke-miterlimit="1.45" shape-rendering="geometricPrecision" transform="matrix(1,0,0,1,372,-22)" stroke-linecap="butt">
        <path fill="none" d="M421.5339 340.0049 L509.1333 107.5135"/>
        <path d="M511.954 100.0272 L503.0441 109.4937 L508.7807 108.4492 L512.4019 113.0195 Z" stroke="none"/>
      </g>
    </g>
    <g id="y.edge.14">
      <g text-rendering="geometricPrecision" stroke-miterlimit="1.45" shape-rendering="geometricPrecision" transform="matrix(1,0,0,1,372,-22)" stroke-linecap="butt">
        <path fill="none" d="M428.3482 339.9792 L545.4967 176.5162"/>
        <path d="M550.1569 170.0137 L539.1025 176.8549 L544.9142 177.329 L547.2307 182.6801 Z" stroke="none"/>
      </g>
    </g>
    <g id="y.edge.13">
      <g text-rendering="geometricPrecision" stroke-miterlimit="1.45" shape-rendering="geometricPrecision" transform="matrix(1,0,0,1,372,-22)" stroke-linecap="butt">
        <path fill="none" d="M440.945 339.9878 L569.1386 244.7777"/>
        <path d="M575.561 240.0077 L562.9462 243.1487 L568.3358 245.3739 L568.9086 251.1767 Z" stroke="none"/>
      </g>
    </g>
    <g id="y.edge.12">
      <g text-rendering="geometricPrecision" stroke-miterlimit="1.45" shape-rendering="geometricPrecision" transform="matrix(1,0,0,1,372,-22)" stroke-linecap="butt">
        <path fill="none" d="M485.2988 339.9963 L602.8504 307.0159"/>
        <path d="M610.553 304.8549 L597.6484 303.2823 L601.8876 307.2861 L600.3498 312.9106 Z" stroke="none"/>
      </g>
    </g>
    <g id="y.edge.11">
      <g text-rendering="geometricPrecision" stroke-miterlimit="1.45" shape-rendering="geometricPrecision" transform="matrix(1,0,0,1,372,-22)" stroke-linecap="butt">
        <path fill="none" d="M506.9892 360 L646.9977 360"/>
        <path d="M654.9977 360 L642.9977 355 L645.9977 360 L642.9977 365 Z" stroke="none"/>
      </g>
    </g>
    <g id="y.edge.10">
      <g text-rendering="geometricPrecision" stroke-miterlimit="1.45" shape-rendering="geometricPrecision" transform="matrix(1,0,0,1,372,-22)" stroke-linecap="butt">
        <path fill="none" d="M485.2988 380.0037 L602.8504 412.9841"/>
        <path d="M610.553 415.1451 L600.3498 407.0894 L601.8876 412.7139 L597.6484 416.7177 Z" stroke="none"/>
      </g>
    </g>
    <g id="y.edge.9">
      <g text-rendering="geometricPrecision" stroke-miterlimit="1.45" shape-rendering="geometricPrecision" transform="matrix(1,0,0,1,372,-22)" stroke-linecap="butt">
        <path fill="none" d="M440.945 380.0122 L569.1386 475.2223"/>
        <path d="M575.561 479.9923 L568.9086 468.8233 L568.3358 474.6261 L562.9462 476.8513 Z" stroke="none"/>
      </g>
    </g>
    <g id="y.edge.8">
      <g text-rendering="geometricPrecision" stroke-miterlimit="1.45" shape-rendering="geometricPrecision" transform="matrix(1,0,0,1,372,-22)" stroke-linecap="butt">
        <path fill="none" d="M428.0175 380.025 L545.9009 548.4298"/>
        <path d="M550.4885 554.9837 L547.7032 542.2856 L545.3274 547.6106 L539.5109 548.0202 Z" stroke="none"/>
      </g>
    </g>
    <g id="y.edge.7">
      <g text-rendering="geometricPrecision" stroke-miterlimit="1.45" shape-rendering="geometricPrecision" transform="matrix(1,0,0,1,372,-22)" stroke-linecap="butt">
        <path fill="none" d="M421.2763 380.0012 L509.487 622.476"/>
        <path d="M512.2219 629.994 L512.8182 617.0077 L509.1451 621.5363 L503.4207 620.4264 Z" stroke="none"/>
      </g>
    </g>
    <g visibility="hidden" id="tooltip.y.node.0" pointer-events="none">
      <g fill="rgb(195,212,232)" text-rendering="geometricPrecision" shape-rendering="geometricPrecision" font-family="sans-serif" stroke="rgb(195,212,232)">
        <rect x="0" width="185" height="17" y="0" clip-path="url(#clipPath2)" stroke="none"/>
        <text fill="black" x="4" xml:space="preserve" y="13" clip-path="url(#clipPath2)" stroke="none">Installation of the Server API</text>
      </g>
      <g fill="rgb(49,106,196)" text-rendering="geometricPrecision" shape-rendering="geometricPrecision" font-family="sans-serif" stroke="rgb(49,106,196)">
        <path d="M0 0 L185 0 L185 17 L0 17 L0 0 ZM1 1 L184 1 L184 16 L1 16 L1 1 Z" fill-rule="evenodd" clip-path="url(#clipPath2)" stroke="none"/>
      </g>
    </g>
    <g visibility="hidden" id="tooltip.y.node.1" pointer-events="none">
      <g fill="rgb(195,212,232)" text-rendering="geometricPrecision" shape-rendering="geometricPrecision" font-family="sans-serif" stroke="rgb(195,212,232)">
        <rect x="0" width="93" height="17" y="0" clip-path="url(#clipPath3)" stroke="none"/>
        <text fill="black" x="4" xml:space="preserve" y="13" clip-path="url(#clipPath3)" stroke="none">nodejs server</text>
      </g>
      <g fill="rgb(49,106,196)" text-rendering="geometricPrecision" shape-rendering="geometricPrecision" font-family="sans-serif" stroke="rgb(49,106,196)">
        <path d="M0 0 L93 0 L93 17 L0 17 L0 0 ZM1 1 L92 1 L92 16 L1 16 L1 1 Z" fill-rule="evenodd" clip-path="url(#clipPath3)" stroke="none"/>
      </g>
    </g>
    <g visibility="hidden" id="tooltip.y.node.2" pointer-events="none">
      <g fill="rgb(195,212,232)" text-rendering="geometricPrecision" shape-rendering="geometricPrecision" font-family="sans-serif" stroke="rgb(195,212,232)">
        <rect x="0" width="111" height="17" y="0" clip-path="url(#clipPath4)" stroke="none"/>
        <text fill="black" x="4" xml:space="preserve" y="13" clip-path="url(#clipPath4)" stroke="none">helping js-hands</text>
      </g>
      <g fill="rgb(49,106,196)" text-rendering="geometricPrecision" shape-rendering="geometricPrecision" font-family="sans-serif" stroke="rgb(49,106,196)">
        <path d="M0 0 L111 0 L111 17 L0 17 L0 0 ZM1 1 L110 1 L110 16 L1 16 L1 1 Z" fill-rule="evenodd" clip-path="url(#clipPath4)" stroke="none"/>
      </g>
    </g>
    <g visibility="hidden" id="tooltip.y.node.3" pointer-events="none">
      <g fill="rgb(195,212,232)" text-rendering="geometricPrecision" shape-rendering="geometricPrecision" font-family="sans-serif" stroke="rgb(195,212,232)">
        <rect x="0" width="191" height="17" y="0" clip-path="url(#clipPath5)" stroke="none"/>
        <text fill="black" x="4" xml:space="preserve" y="13" clip-path="url(#clipPath5)" stroke="none">do sth. before/after requests</text>
      </g>
      <g fill="rgb(49,106,196)" text-rendering="geometricPrecision" shape-rendering="geometricPrecision" font-family="sans-serif" stroke="rgb(49,106,196)">
        <path d="M0 0 L191 0 L191 17 L0 17 L0 0 ZM1 1 L190 1 L190 16 L1 16 L1 1 Z" fill-rule="evenodd" clip-path="url(#clipPath5)" stroke="none"/>
      </g>
    </g>
    <g visibility="hidden" id="tooltip.y.node.4" pointer-events="none">
      <g fill="rgb(195,212,232)" text-rendering="geometricPrecision" shape-rendering="geometricPrecision" font-family="sans-serif" stroke="rgb(195,212,232)">
        <rect x="0" width="129" height="17" y="0" clip-path="url(#clipPath6)" stroke="none"/>
        <text fill="black" x="4" xml:space="preserve" y="13" clip-path="url(#clipPath6)" stroke="none">custom middleware</text>
      </g>
      <g fill="rgb(49,106,196)" text-rendering="geometricPrecision" shape-rendering="geometricPrecision" font-family="sans-serif" stroke="rgb(49,106,196)">
        <path d="M0 0 L129 0 L129 17 L0 17 L0 0 ZM1 1 L128 1 L128 16 L1 16 L1 1 Z" fill-rule="evenodd" clip-path="url(#clipPath6)" stroke="none"/>
      </g>
    </g>
    <g visibility="hidden" id="tooltip.y.node.5" pointer-events="none">
      <g fill="rgb(195,212,232)" text-rendering="geometricPrecision" shape-rendering="geometricPrecision" font-family="sans-serif" stroke="rgb(195,212,232)">
        <rect x="0" width="86" height="17" y="0" clip-path="url(#clipPath7)" stroke="none"/>
        <text fill="black" x="4" xml:space="preserve" y="13" clip-path="url(#clipPath7)" stroke="none">data models</text>
      </g>
      <g fill="rgb(49,106,196)" text-rendering="geometricPrecision" shape-rendering="geometricPrecision" font-family="sans-serif" stroke="rgb(49,106,196)">
        <path d="M0 0 L86 0 L86 17 L0 17 L0 0 ZM1 1 L85 1 L85 16 L1 16 L1 1 Z" fill-rule="evenodd" clip-path="url(#clipPath7)" stroke="none"/>
      </g>
    </g>
    <g visibility="hidden" id="tooltip.y.node.6" pointer-events="none">
      <g fill="rgb(195,212,232)" text-rendering="geometricPrecision" shape-rendering="geometricPrecision" font-family="sans-serif" stroke="rgb(195,212,232)">
        <rect x="0" width="59" height="17" y="0" clip-path="url(#clipPath8)" stroke="none"/>
        <text fill="black" x="4" xml:space="preserve" y="13" clip-path="url(#clipPath8)" stroke="none">services</text>
      </g>
      <g fill="rgb(49,106,196)" text-rendering="geometricPrecision" shape-rendering="geometricPrecision" font-family="sans-serif" stroke="rgb(49,106,196)">
        <path d="M0 0 L59 0 L59 17 L0 17 L0 0 ZM1 1 L58 1 L58 16 L1 16 L1 1 Z" fill-rule="evenodd" clip-path="url(#clipPath8)" stroke="none"/>
      </g>
    </g>
    <g visibility="hidden" id="tooltip.y.node.7" pointer-events="none">
      <g fill="rgb(195,212,232)" text-rendering="geometricPrecision" shape-rendering="geometricPrecision" font-family="sans-serif" stroke="rgb(195,212,232)">
        <rect x="0" width="97" height="17" y="0" clip-path="url(#clipPath9)" stroke="none"/>
        <text fill="black" x="4" xml:space="preserve" y="13" clip-path="url(#clipPath9)" stroke="none">Node Modules</text>
      </g>
      <g fill="rgb(49,106,196)" text-rendering="geometricPrecision" shape-rendering="geometricPrecision" font-family="sans-serif" stroke="rgb(49,106,196)">
        <path d="M0 0 L97 0 L97 17 L0 17 L0 0 ZM1 1 L96 1 L96 16 L1 16 L1 1 Z" fill-rule="evenodd" clip-path="url(#clipPath9)" stroke="none"/>
      </g>
    </g>
    <g visibility="hidden" id="tooltip.y.node.8" pointer-events="none">
      <g fill="rgb(195,212,232)" text-rendering="geometricPrecision" shape-rendering="geometricPrecision" font-family="sans-serif" stroke="rgb(195,212,232)">
        <rect x="0" width="93" height="17" y="0" clip-path="url(#clipPath3)" stroke="none"/>
        <text fill="black" x="4" xml:space="preserve" y="13" clip-path="url(#clipPath3)" stroke="none">Users Service</text>
      </g>
      <g fill="rgb(49,106,196)" text-rendering="geometricPrecision" shape-rendering="geometricPrecision" font-family="sans-serif" stroke="rgb(49,106,196)">
        <path d="M0 0 L93 0 L93 17 L0 17 L0 0 ZM1 1 L92 1 L92 16 L1 16 L1 1 Z" fill-rule="evenodd" clip-path="url(#clipPath3)" stroke="none"/>
      </g>
    </g>
    <g visibility="hidden" id="tooltip.y.node.9" pointer-events="none">
      <g fill="rgb(195,212,232)" text-rendering="geometricPrecision" shape-rendering="geometricPrecision" font-family="sans-serif" stroke="rgb(195,212,232)">
        <rect x="0" width="141" height="17" y="0" clip-path="url(#clipPath10)" stroke="none"/>
        <text fill="black" x="4" xml:space="preserve" y="13" clip-path="url(#clipPath10)" stroke="none">Contributions Service</text>
      </g>
      <g fill="rgb(49,106,196)" text-rendering="geometricPrecision" shape-rendering="geometricPrecision" font-family="sans-serif" stroke="rgb(49,106,196)">
        <path d="M0 0 L141 0 L141 17 L0 17 L0 0 ZM1 1 L140 1 L140 16 L1 16 L1 1 Z" fill-rule="evenodd" clip-path="url(#clipPath10)" stroke="none"/>
      </g>
    </g>
    <g visibility="hidden" id="tooltip.y.node.10" pointer-events="none">
      <g fill="rgb(195,212,232)" text-rendering="geometricPrecision" shape-rendering="geometricPrecision" font-family="sans-serif" stroke="rgb(195,212,232)">
        <rect x="0" width="122" height="17" y="0" clip-path="url(#clipPath11)" stroke="none"/>
        <text fill="black" x="4" xml:space="preserve" y="13" clip-path="url(#clipPath11)" stroke="none">Comments service</text>
      </g>
      <g fill="rgb(49,106,196)" text-rendering="geometricPrecision" shape-rendering="geometricPrecision" font-family="sans-serif" stroke="rgb(49,106,196)">
        <path d="M0 0 L122 0 L122 17 L0 17 L0 0 ZM1 1 L121 1 L121 16 L1 16 L1 1 Z" fill-rule="evenodd" clip-path="url(#clipPath11)" stroke="none"/>
      </g>
    </g>
    <g visibility="hidden" id="tooltip.y.node.11" pointer-events="none">
      <g fill="rgb(195,212,232)" text-rendering="geometricPrecision" shape-rendering="geometricPrecision" font-family="sans-serif" stroke="rgb(195,212,232)">
        <rect x="0" width="125" height="17" y="0" clip-path="url(#clipPath12)" stroke="none"/>
        <text fill="black" x="4" xml:space="preserve" y="13" clip-path="url(#clipPath12)" stroke="none">Categories Service</text>
      </g>
      <g fill="rgb(49,106,196)" text-rendering="geometricPrecision" shape-rendering="geometricPrecision" font-family="sans-serif" stroke="rgb(49,106,196)">
        <path d="M0 0 L125 0 L125 17 L0 17 L0 0 ZM1 1 L124 1 L124 16 L1 16 L1 1 Z" fill-rule="evenodd" clip-path="url(#clipPath12)" stroke="none"/>
      </g>
    </g>
    <g visibility="hidden" id="tooltip.y.node.12" pointer-events="none">
      <g fill="rgb(195,212,232)" text-rendering="geometricPrecision" shape-rendering="geometricPrecision" font-family="sans-serif" stroke="rgb(195,212,232)">
        <rect x="0" width="108" height="17" y="0" clip-path="url(#clipPath13)" stroke="none"/>
        <text fill="black" x="4" xml:space="preserve" y="13" clip-path="url(#clipPath13)" stroke="none">Projects Service</text>
      </g>
      <g fill="rgb(49,106,196)" text-rendering="geometricPrecision" shape-rendering="geometricPrecision" font-family="sans-serif" stroke="rgb(49,106,196)">
        <path d="M0 0 L108 0 L108 17 L0 17 L0 0 ZM1 1 L107 1 L107 16 L1 16 L1 1 Z" fill-rule="evenodd" clip-path="url(#clipPath13)" stroke="none"/>
      </g>
    </g>
    <g visibility="hidden" id="tooltip.y.node.13" pointer-events="none">
      <g fill="rgb(195,212,232)" text-rendering="geometricPrecision" shape-rendering="geometricPrecision" font-family="sans-serif" stroke="rgb(195,212,232)">
        <rect x="0" width="142" height="17" y="0" clip-path="url(#clipPath14)" stroke="none"/>
        <text fill="black" x="4" xml:space="preserve" y="13" clip-path="url(#clipPath14)" stroke="none">Organizations Service</text>
      </g>
      <g fill="rgb(49,106,196)" text-rendering="geometricPrecision" shape-rendering="geometricPrecision" font-family="sans-serif" stroke="rgb(49,106,196)">
        <path d="M0 0 L142 0 L142 17 L0 17 L0 0 ZM1 1 L141 1 L141 16 L1 16 L1 1 Z" fill-rule="evenodd" clip-path="url(#clipPath14)" stroke="none"/>
      </g>
    </g>
    <g visibility="hidden" id="tooltip.y.node.14" pointer-events="none">
      <g fill="rgb(195,212,232)" text-rendering="geometricPrecision" shape-rendering="geometricPrecision" font-family="sans-serif" stroke="rgb(195,212,232)">
        <rect x="0" width="104" height="17" y="0" clip-path="url(#clipPath15)" stroke="none"/>
        <text fill="black" x="4" xml:space="preserve" y="13" clip-path="url(#clipPath15)" stroke="none">Badges Service</text>
      </g>
      <g fill="rgb(49,106,196)" text-rendering="geometricPrecision" shape-rendering="geometricPrecision" font-family="sans-serif" stroke="rgb(49,106,196)">
        <path d="M0 0 L104 0 L104 17 L0 17 L0 0 ZM1 1 L103 1 L103 16 L1 16 L1 1 Z" fill-rule="evenodd" clip-path="url(#clipPath15)" stroke="none"/>
      </g>
    </g>
    <g visibility="hidden" id="tooltip.y.node.15" pointer-events="none">
      <g fill="rgb(195,212,232)" text-rendering="geometricPrecision" shape-rendering="geometricPrecision" font-family="sans-serif" stroke="rgb(195,212,232)">
        <rect x="0" width="102" height="17" y="0" clip-path="url(#clipPath16)" stroke="none"/>
        <text fill="black" x="4" xml:space="preserve" y="13" clip-path="url(#clipPath16)" stroke="none">Follows Service</text>
      </g>
      <g fill="rgb(49,106,196)" text-rendering="geometricPrecision" shape-rendering="geometricPrecision" font-family="sans-serif" stroke="rgb(49,106,196)">
        <path d="M0 0 L102 0 L102 17 L0 17 L0 0 ZM1 1 L101 1 L101 16 L1 16 L1 1 Z" fill-rule="evenodd" clip-path="url(#clipPath16)" stroke="none"/>
      </g>
    </g>
    <g visibility="hidden" id="tooltip.y.node.16" pointer-events="none">
      <g fill="rgb(195,212,232)" text-rendering="geometricPrecision" shape-rendering="geometricPrecision" font-family="sans-serif" stroke="rgb(195,212,232)">
        <rect x="0" width="115" height="17" y="0" clip-path="url(#clipPath17)" stroke="none"/>
        <text fill="black" x="4" xml:space="preserve" y="13" clip-path="url(#clipPath17)" stroke="none">Emotions Service</text>
      </g>
      <g fill="rgb(49,106,196)" text-rendering="geometricPrecision" shape-rendering="geometricPrecision" font-family="sans-serif" stroke="rgb(49,106,196)">
        <path d="M0 0 L115 0 L115 17 L0 17 L0 0 ZM1 1 L114 1 L114 16 L1 16 L1 1 Z" fill-rule="evenodd" clip-path="url(#clipPath17)" stroke="none"/>
      </g>
    </g>
  </g>
</svg>
