<?xml version="1.0" encoding="UTF-8"?>
<svg width="553px" height="242px" viewBox="0 0 553 242" version="1.1" xmlns="http://www.w3.org/2000/svg" xmlns:xlink="http://www.w3.org/1999/xlink">
    <!-- Generator: Sketch 48.2 (47327) - http://www.bohemiancoding.com/sketch -->
    <title>HC-Guide</title>
    <desc>Created with Sketch.</desc>
    <defs></defs>
    <g id="Page-1" stroke="none" stroke-width="1" fill="none" fill-rule="evenodd">
        <g id="HC-Guide">
            <g id="Logo_vertical-(1)" transform="translate(22.000000, 19.000000)">
                <circle id="Oval" fill="#FFFFFF" cx="98.5" cy="98.5" r="98.5"></circle>
                <g id="Group" transform="translate(5.000000, 4.000000)" fill-rule="nonzero">
                    <path d="M134.496282,38.631924 C128.503803,36.7361502 122.19593,35.2616596 115.677795,34.2084519 C116.308582,37.262754 116.834238,40.5276977 117.359894,43.7926413 C125.034473,41.6862261 129.344853,42.0021884 134.496282,38.631924" id="Shape" fill="#216194"></path>
                    <path d="M151.955447,72.3374319 C152.796496,72.4427527 153.532415,72.6533942 154.373464,72.8640357 C154.058071,71.1789035 153.847808,69.3884506 153.427284,67.8086391 C153.322152,68.2299222 153.11189,68.756526 152.901627,69.177809 C152.481103,70.1256959 152.165709,71.2842243 151.955447,72.3374319" id="Shape" fill="#017F9F"></path>
                    <path d="M86.6496725,163.53794 C86.3342789,162.484732 86.2291477,161.431525 86.1240164,160.378317 C86.1240164,160.272996 86.1240164,159.957034 86.0188852,159.851713 C82.9700801,159.746393 79.7110125,159.43043 76.6622073,159.009147 C80.972587,177.018998 87.0701974,188.288319 93.6934638,188.288319 C94.6396447,188.288319 95.3755632,188.182998 96.2166129,187.761715 C95.1653007,185.128696 93.798595,181.969073 92.7472829,179.652017 C89.2779528,171.436997 87.1753286,166.381601 86.6496725,163.53794" id="Shape" fill="#76B629"></path>
                    <path d="M44.4914596,37.4705316 C53.4276127,33.9949465 62.994553,31.4672482 73.1922807,29.9927575 C76.2410859,16.6170207 80.5514656,6.0849444 85.702895,0.608264752 C85.5977638,0.608264752 85.5977638,0.608264752 85.3875014,0.608264752 C68.6716385,4.29449144 54.1635312,17.9861906 44.4914596,37.4705316" id="Shape" fill="#A53589"></path>
                    <path d="M110.829851,29.8874367 C106.519472,11.7722656 100.421861,0.608264752 93.6934638,0.608264752 C86.9650661,0.608264752 80.8674558,11.7722656 76.6622073,29.8874367 C88.1215095,28.5182668 99.265418,28.5182668 110.829851,29.8874367" id="Shape" fill="#024F9D"></path>
                    <path d="M92.8993241,55.7958088 C97.3148351,50.9510537 99.3123281,51.4776575 105.725332,48.2127139 C107.827956,47.1595063 110.561368,45.7903364 113.610173,44.631808 C112.979386,40.629619 112.243467,36.8380715 111.507549,33.2571656 C99.6277217,31.7826749 87.5376323,31.7826749 75.6578052,33.2571656 C74.7116243,37.5753169 73.9757058,42.1041097 73.2397873,46.843544 C80.3887098,47.6861101 87.3273698,49.6872046 92.8993241,55.7958088" id="Shape" fill="#50568C"></path>
                    <path d="M72.5553033,135.694732 C73.5014842,142.751223 74.5527964,149.491751 75.7092397,155.495035 C78.8631761,155.916318 82.0171125,156.12696 85.1710489,156.442922 C84.750524,154.86311 84.1197367,153.49394 83.0684246,151.598167 C81.7017188,149.491751 76.9708143,142.119298 72.5553033,135.694732" id="Shape" fill="#C6D200"></path>
                    <path d="M101.988115,1.29398286 C106.403626,5.92809641 110.398612,14.7750405 113.552548,27.6241735 C113.867942,28.6773811 114.078205,29.625268 114.183336,30.6784756 C122.173308,31.837004 129.953018,33.627457 137.10194,36.0498345 C138.048121,34.9966269 138.994302,33.7327777 139.73022,32.4689286 C130.373543,15.8282481 117.12701,4.45360573 101.988115,1.29398286" id="Shape" fill="#0369B2"></path>
                    <path d="M158.270106,73.8362542 C171.62177,76.8905563 182.134891,81.2087076 187.601714,86.369425 C187.601714,86.2641042 187.601714,86.2641042 187.601714,86.0534627 C184.65804,72.2564428 174.985969,60.0392343 160.688124,50.6656865 C159.216287,53.7199886 157.74445,57.1955737 156.062351,61.513725 C156.9034,65.6212348 157.74445,69.7287445 158.270106,73.8362542" id="Shape" fill="#017F9F"></path>
                    <path d="M187.34228,94.4706561 C187.34228,87.8354481 176.198371,81.6215231 158.115803,77.4086926 C159.482508,88.8886557 159.482508,100.157977 158.115803,111.63794 C176.198371,107.319789 187.34228,101.211185 187.34228,94.4706561" id="Shape" fill="#007D75"></path>
                    <path d="M135.726782,105.789239 L130.154828,112.424447 C129.734303,113.477654 129.208647,114.741503 128.682991,116.110673 C138.249931,115.162787 147.080953,113.793617 154.965794,112.108484 C156.437631,100.207238 156.437631,88.0953505 154.965794,76.1941044 C153.809351,75.8781421 152.442645,75.6675006 151.075939,75.3515383 C151.075939,75.6675006 150.970808,75.8781421 150.970808,76.1941044 C149.183577,83.7771993 147.186084,92.308181 135.726782,105.789239" id="Shape" fill="#008D6D"></path>
                    <path d="M158.050795,115.78851 C156.578958,125.899303 154.055809,135.588813 150.586479,144.541078 C170.140884,134.746247 183.807942,120.211982 187.277272,103.571301 L187.277272,103.465981 C182.651499,107.994773 173.820477,111.996962 160.994469,115.261906 C160.153419,115.261906 159.102107,115.577868 158.050795,115.78851" id="Shape" fill="#008051"></path>
                    <path d="M129.367475,172.319759 C134.834298,166.527117 139.670334,159.470626 143.455057,151.466248 C139.775465,152.940739 135.990741,154.099267 131.995755,155.363116 C131.995755,158.944022 131.364968,161.893004 130.629049,164.736664 C130.208524,167.053721 129.682868,169.370778 129.367475,172.319759" id="Shape" fill="#46942B"></path>
                    <path d="M11.4169166,58.5930103 C18.9863639,50.6939531 28.8686979,44.2693866 39.276688,39.635273 C45.689692,25.2063285 55.3617636,12.0412332 67.9775091,4.03685528 C39.6972128,12.146554 16.7786084,33.2107065 6.16035594,60.3834632 C7.31679928,59.8568594 8.36811141,59.5408971 11.4169166,58.5930103" id="Shape" fill="#D5146E"></path>
                    <path d="M119.205346,140.191796 L119.100215,140.507758 C124.672169,142.508853 130.559517,146.616363 131.400567,150.829193 C131.400567,151.145155 131.505698,151.355797 131.505698,151.671759 C136.446865,150.197269 141.072638,148.617457 145.488149,146.616363 C149.378004,137.558777 152.321678,127.342663 154.003778,116.494625 C145.698412,118.179757 136.551996,119.548927 126.774793,120.496814 L125.302956,124.393682 C122.674676,130.923569 119.941265,137.98006 119.205346,140.191796" id="Shape" fill="#15A338"></path>
                    <path d="M161.538222,47.1136448 C170.474376,52.9062867 178.359217,60.0680986 183.615777,68.5990803 C180.251578,56.6978342 174.574493,45.7444749 167.110177,36.2656063 C166.479389,37.6347762 165.63834,39.1092668 164.79729,40.5837575 C163.95624,42.584852 162.799797,44.796588 161.538222,47.1136448" id="Shape" fill="#0080C7"></path>
                    <path d="M119.784699,4.03685528 C128.720852,9.82949722 136.290299,18.1498375 142.282778,27.9446684 C143.439222,24.574404 144.385403,20.572215 144.805928,15.5168184 C137.131349,10.4614218 128.720852,6.56455358 119.784699,4.03685528" id="Shape" fill="#0089D0"></path>
                    <path d="M38.9567699,149.361501 C24.5537938,142.936935 11.4123921,133.247425 3.42241997,120.608933 C12.3585731,151.678558 36.7490144,176.112975 67.7627222,185.06524 C55.1469767,177.166183 45.4749051,163.790446 38.9567699,149.361501" id="Shape" fill="#E9BB00"></path>
                    <path d="M148.55279,149.361501 C143.716754,159.998898 137.093488,170.215012 128.998384,177.903428 C128.893253,179.272598 128.893253,180.536447 128.682991,182.010938 C155.49145,171.373541 176.30743,148.624256 184.297402,120.608933 C176.202299,133.247425 163.060897,142.936935 148.55279,149.361501" id="Shape" fill="#007632"></path>
                    <path d="M37.2481204,45.1799416 C30.4145916,48.550206 24.3169813,52.552395 19.1655518,57.0811878 C24.5272437,55.6066971 30.099198,54.0268857 34.9352338,52.0257912 C35.6711522,49.7087344 36.5122019,47.3916776 37.2481204,45.1799416" id="Shape" fill="#C51553"></path>
                    <path d="M48.6876592,46.2150189 C60.4623551,46.8469434 69.6087706,47.057585 69.6087706,47.057585 C70.2395579,42.6341129 70.9754763,38.2106409 71.9216573,34.2084519 C60.9880111,35.8935841 50.8954147,38.8425655 41.8541304,42.7394337 C40.9079495,45.0564905 39.9617686,47.3735472 39.0155876,49.7959248 C44.2721483,47.1629057 43.2208361,46.4256604 48.6876592,46.2150189" id="Shape" fill="#593872"></path>
                    <path d="M53.7740808,111.508288 C48.938045,108.664627 44.8379277,105.189042 40.9480729,101.924099 C38.1095301,99.5017211 34.9555937,96.7633813 31.4862637,94.5516452 C31.4862637,100.660249 31.9067886,106.663533 32.5375758,112.666816 C40.527548,114.351949 49.7790947,115.721119 59.76656,116.669005 C59.2409039,115.826439 58.6101166,115.089194 57.7690669,114.351949 C56.6126236,113.404062 55.2459178,112.245533 53.7740808,111.508288" id="Shape" fill="#F19000"></path>
                    <path d="M37.3752773,144.225116 C33.9059473,135.272851 31.3827982,125.688662 29.9109612,115.472548 C16.979822,112.523566 6.88722555,108.521377 1.21014006,103.465981 L0.684483994,103.887264 C4.7846013,120.317303 18.2413965,134.640926 37.3752773,144.225116" id="Shape" fill="#F9B800"></path>
                    <path d="M62.8713241,120.602134 C52.3582028,119.654248 42.4758688,118.285078 33.5397157,116.494625 C35.2218151,127.447984 38.1654891,137.558777 42.0553439,146.616363 C51.0966282,150.513231 61.2943559,153.462212 72.1228708,155.147344 C70.5459026,147.353608 69.1791968,138.717306 68.4432784,129.343758 C66.8663102,127.132022 65.289342,124.07772 62.8713241,120.602134" id="Shape" fill="#FDDB00"></path>
                    <path d="M13.6738443,93.2888963 L13.5687131,93.394217 L4.10690396,100.977312 C8.73267733,104.979501 17.6688304,108.560407 29.4435263,111.404067 C28.6024766,104.979501 28.3922141,98.5549344 28.4973453,92.1303679 C26.0793275,91.0771602 23.6613096,90.4452357 21.1381604,90.4452357 C18.2996177,90.3399149 15.8815998,91.2878018 13.6738443,93.2888963" id="Shape" fill="#E43311"></path>
                    <path d="M73.1922807,158.944022 C63.0996843,157.469531 53.4276127,154.941833 44.4914596,151.466248 C54.2686624,171.05591 68.7767698,184.747609 85.3875014,188.223194 L85.4926326,188.223194 C80.9719904,183.589081 76.9770044,174.742137 73.7179368,161.893004 C73.7179368,161.050437 73.5076743,159.99723 73.1922807,158.944022" id="Shape" fill="#B7C200"></path>
                    <path d="M20.9211114,86.604511 C29.7521332,86.604511 37.4267118,93.0290775 43.8397158,98.5057572 C47.7295706,101.66538 51.6194255,105.140965 56.1400677,107.879305 C58.0324295,108.932513 59.6093977,110.196362 60.765841,111.460211 C62.7633341,113.461305 63.0787277,113.882588 64.1300398,115.567721 C65.181352,117.252853 66.0224017,118.411381 66.5480577,118.411381 C67.5993699,118.411381 69.9122566,117.252853 70.2276502,115.4624 C71.0686999,111.881494 67.5993699,108.51123 64.8659583,105.983531 C61.1863659,102.402625 55.4041492,95.9780589 53.827181,93.0290775 C41.2114354,69.4372267 69.0712069,50.1635272 85.7870697,63.7499055 C87.4691691,62.1700941 89.1512685,60.0636788 90.4128431,58.6945089 C81.47669,48.899678 68.650682,51.2167348 55.6144116,50.2688479 C53.7220498,50.1635272 48.4654891,49.7422441 46.9936522,50.1635272 C45.416684,50.690131 43.8397158,51.5326971 42.8935348,52.1646217 C30.9085766,58.7998297 14.4029762,60.2743204 4.41551094,65.751 C1.57696819,74.7032648 0,84.2874542 0,94.2929267 C0,95.8727381 0,97.4525495 0.105131213,99.1376817 L11.0387774,90.5013792 C13.9824513,87.7630394 17.1363877,86.604511 20.9211114,86.604511" id="Shape" fill="#E64E10"></path>
                    <path d="M115.212026,48.083597 C110.165727,49.9793707 106.170741,52.6123898 103.227067,53.5602767 C97.6551131,55.5613711 96.9191946,57.1411826 92.8190773,61.6699754 C91.662634,63.0391453 89.9805346,65.0402398 88.2984352,66.6200512 C88.2984352,66.725372 88.2984352,67.2519758 88.8240912,67.9892211 C90.2959282,70.0956364 92.3985525,69.358391 94.2909143,67.5679381 C114.160714,48.6102008 130.035527,65.0402398 132.03302,74.9403914 C132.979201,79.4691842 133.399725,86.5256753 127.932902,97.9003177 C130.561183,98.8482045 132.453545,100.428016 132.768938,103.271677 C147.382177,85.8937508 145.384684,77.9946936 149.274539,67.3572965 C156.423461,46.9250686 161.364628,40.0792191 165.044221,32.8120864 C160.103054,27.230086 154.63623,21.9640479 148.53862,17.7512174 C144.859028,46.8197479 127.091853,43.7654457 115.212026,48.083597" id="Shape" fill="#079DE1"></path>
                    <path d="M124.955295,172.659455 C125.480951,164.023153 128.950281,160.020964 127.373313,151.700624 C126.952788,149.594208 121.801359,145.276057 115.914011,143.801566 L114.021649,143.485604 L115.388355,139.167453 C116.229404,136.323792 120.224391,126.31832 123.693721,117.682017 C124.114245,116.73413 128.529756,106.518016 128.319494,104.727563 C128.0041,103.147752 126.21687,102.094544 124.955295,102.094544 C123.693721,102.094544 122.432146,104.411601 121.06544,106.728658 C119.173078,109.78296 118.016635,112.731941 116.439667,115.680923 C114.757568,118.840546 112.865206,122.21081 110.867713,125.791716 C108.87022,129.477943 106.557333,133.690773 103.929053,138.430207 C102.772609,140.747264 100.775116,141.905793 98.3570983,141.905793 C96.2544741,141.905793 93.8364562,141.273868 93.2056689,140.747264 C92.5748816,140.22066 76.8051997,122.316131 72.9153448,118.629904 C71.7589015,120.525678 69.8665396,121.789527 67.7639154,122.316131 C73.3358696,130.741792 84.0592534,146.434585 86.1618776,149.699529 C89.315814,154.649605 89.2106828,157.809228 90.2619949,163.180587 C90.8927822,167.077455 97.200655,180.137229 100.354591,188.45757 C108.659957,187.825645 116.755061,186.140513 124.219377,183.507494 C124.429639,179.821267 124.745033,176.13504 124.955295,172.659455" id="Shape" fill="#93BF1F"></path>
                </g>
            </g>
            <g id="Group-3" transform="translate(253.000000, 33.000000)">
                <path d="M35.1398207,158.475487 C37.208911,158.475487 39.0415065,158.298188 40.6376619,157.943586 C42.2338173,157.588984 43.7412749,157.116188 45.1600797,156.525185 L45.1600797,146.729349 L38.7754899,146.729349 C37.82962,146.729349 37.0906702,146.478176 36.5586184,145.975823 C36.0265666,145.47347 35.7605447,144.83815 35.7605447,144.069846 L35.7605447,135.825386 L58.7273331,135.825386 L58.7273331,163.085292 C57.0720608,164.29685 55.3503078,165.338478 53.5620226,166.210208 C51.7737373,167.081939 49.8672469,167.79852 47.8424942,168.359973 C45.8177415,168.921427 43.6600081,169.335123 41.3692295,169.601075 C39.0784509,169.867026 36.6177481,170 33.9870475,170 C29.257698,170 24.8831154,169.16522 20.8631684,167.495635 C16.8432213,165.826049 13.3627679,163.52117 10.4217038,160.580927 C7.48063956,157.640684 5.17511629,154.153815 3.50506476,150.120215 C1.83501324,146.086615 1,141.705866 1,136.977837 C1,132.161158 1.79806575,127.736085 3.39422119,123.702485 C4.99037663,119.668885 7.27373141,116.189403 10.244354,113.263936 C13.2149767,110.338468 16.8062725,108.063138 21.0183494,106.437878 C25.2304262,104.812618 29.9375363,104 35.1398207,104 C37.8296382,104 40.3568464,104.221623 42.7215211,104.664876 C45.0861958,105.108128 47.2660976,105.713898 49.2612919,106.482203 C51.2564862,107.250508 53.0816922,108.166549 54.7369645,109.230356 C56.3922368,110.294162 57.8701363,111.446602 59.1707074,112.68771 L54.8256393,119.292142 C54.4118212,119.912696 53.9167249,120.400267 53.3403354,120.754869 C52.763946,121.109471 52.1358387,121.28677 51.4559947,121.28677 C50.5692417,121.28677 49.652944,120.991272 48.7070741,120.400269 C47.5247367,119.691064 46.4089225,119.077907 45.3595981,118.560779 C44.3102737,118.043651 43.2387966,117.622567 42.1451345,117.297515 C41.0514724,116.972463 39.8987108,116.736065 38.686815,116.588314 C37.4749192,116.440563 36.1152516,116.366689 34.6077715,116.366689 C31.7997203,116.366689 29.2725121,116.861647 27.0260711,117.851578 C24.7796301,118.841509 22.8657502,120.237734 21.284374,122.040296 C19.7029977,123.842857 18.4837306,126.007375 17.626536,128.533915 C16.7693414,131.060456 16.3407506,133.875068 16.3407506,136.977837 C16.3407506,140.405659 16.8136784,143.449282 17.7595483,146.108798 C18.7054182,148.768314 20.0133593,151.014094 21.6834108,152.846206 C23.3534624,154.678317 25.3338477,156.074542 27.6246264,157.034923 C29.915405,157.995304 32.4204447,158.475487 35.1398207,158.475487 Z M94.7293258,157.456011 C96.7392993,157.456011 98.5349473,157.123576 100.116323,156.458697 C101.6977,155.793818 103.035199,154.840839 104.128861,153.599731 C105.222523,152.358624 106.057536,150.8442 106.633926,149.056414 C107.210315,147.268628 107.498505,145.237083 107.498505,142.961719 L107.498505,104.709201 L122.484557,104.709201 L122.484557,142.961719 C122.484557,146.921444 121.84167,150.556061 120.555878,153.865682 C119.270087,157.175302 117.430102,160.026852 115.035868,162.420416 C112.641635,164.813981 109.730173,166.675615 106.301395,168.005373 C102.872617,169.335131 99.0152987,170 94.7293258,170 C90.4137944,170 86.5416976,169.335131 83.1129193,168.005373 C79.6841409,166.675615 76.7726789,164.813981 74.3784457,162.420416 C71.9842125,160.026852 70.1516171,157.175302 68.8806045,153.865682 C67.6095918,150.556061 66.974095,146.921444 66.974095,142.961719 L66.974095,104.709201 L81.9601461,104.709201 L81.9601461,142.917394 C81.9601461,145.192758 82.2483365,147.224303 82.824726,149.012089 C83.4011155,150.799875 84.2361287,152.321686 85.3297908,153.577569 C86.4234528,154.833452 87.7609519,155.793818 89.3423281,156.458697 C90.9237044,157.123576 92.7193523,157.456011 94.7293258,157.456011 Z M148.64364,169.290799 L133.568914,169.290799 L133.568914,104.709201 L148.64364,104.709201 L148.64364,169.290799 Z M219.228828,136.977837 C219.228828,141.646766 218.423372,145.95364 216.812438,149.89859 C215.201503,153.843539 212.932927,157.256534 210.006642,160.137676 C207.080357,163.018819 203.555567,165.264599 199.432165,166.875084 C195.308764,168.485569 190.734665,169.290799 185.709731,169.290799 L160.614746,169.290799 L160.614746,104.709201 L185.709731,104.709201 C190.734665,104.709201 195.308764,105.521819 199.432165,107.147079 C203.555567,108.772339 207.080357,111.018119 210.006642,113.884486 C212.932927,116.750854 215.201503,120.156461 216.812438,124.10141 C218.423372,128.04636 219.228828,132.338459 219.228828,136.977837 Z M203.888077,136.977837 C203.888077,133.786418 203.474265,130.905318 202.646629,128.334453 C201.818993,125.763587 200.629284,123.584294 199.077466,121.796508 C197.525648,120.008722 195.626547,118.634659 193.380106,117.674278 C191.133665,116.713897 188.576899,116.233714 185.709731,116.233714 L175.689472,116.233714 L175.689472,157.766286 L185.709731,157.766286 C188.576899,157.766286 191.133665,157.286103 193.380106,156.325722 C195.626547,155.365341 197.525648,153.991278 199.077466,152.203492 C200.629284,150.415706 201.818993,148.236413 202.646629,145.665547 C203.474265,143.094682 203.888077,140.198807 203.888077,136.977837 Z M268,104.709201 L268,116.233714 L241.486217,116.233714 L241.486217,131.304231 L261.79276,131.304231 L261.79276,142.385494 L241.486217,142.385494 L241.486217,157.766286 L268,157.766286 L268,169.290799 L226.411491,169.290799 L226.411491,104.709201 L268,104.709201 Z" id="GUIDE" fill="#15A338"></path>
                <g id="Group-2" fill="#000000" fill-rule="nonzero">
                    <path d="M13.6146375,84 C6.07658962,84 0,78.0053524 0,70.7368421 C0,63.3933988 6.15350847,57.4736842 13.6146375,57.4736842 C17.3067426,57.4736842 20.9219288,58.9723461 23.460251,61.5950045 L20.9219288,63.618198 C18.9989574,61.7448707 16.3067974,60.6958073 13.6146375,60.6958073 C7.8457233,60.6958073 3.3075108,65.2667261 3.3075108,70.7368421 C3.3075108,76.2818912 7.99956101,80.7778769 13.6146375,80.7778769 C16.3067974,80.7778769 18.9989574,79.7288136 20.9219288,77.8554862 L23.460251,79.8786798 C20.9988477,82.5762712 17.4605803,84 13.6146375,84" id="Shape"></path>
                    <path d="M157.727608,84 C150.18956,84 144.112971,78.0053524 144.112971,70.7368421 C144.112971,63.3933988 150.266479,57.4736842 157.727608,57.4736842 C161.419713,57.4736842 165.0349,58.9723461 167.573222,61.5950045 L165.0349,63.618198 C163.111928,61.7448707 160.419768,60.6958073 157.727608,60.6958073 C151.958694,60.6958073 147.420482,65.2667261 147.420482,70.7368421 C147.420482,76.2818912 152.112532,80.7778769 157.727608,80.7778769 C160.419768,80.7778769 163.111928,79.7288136 165.0349,77.8554862 L167.573222,79.8786798 C165.0349,82.5762712 161.496632,84 157.727608,84" id="Shape"></path>
                    <path d="M224.548117,84 C217.125665,84 211.142259,78.0053524 211.142259,70.7368421 C211.142259,63.3933988 217.201404,57.4736842 224.548117,57.4736842 C231.89483,57.4736842 237.953975,63.4683318 237.953975,70.7368421 C237.953975,78.0802855 231.89483,84 224.548117,84 Z M224.548117,60.6958073 C218.867669,60.6958073 214.39905,65.2667261 214.39905,70.7368421 C214.39905,76.2818912 219.019148,80.7778769 224.548117,80.7778769 C230.228565,80.7778769 234.697185,76.2069581 234.697185,70.7368421 C234.697185,65.2667261 230.152826,60.6958073 224.548117,60.6958073 Z" id="Shape"></path>
                    <path d="M40.2175732,84 C32.7951209,84 26.8117155,78.0053524 26.8117155,70.7368421 C26.8117155,63.3933988 32.8708602,57.4736842 40.2175732,57.4736842 C47.5642862,57.4736842 53.623431,63.4683318 53.623431,70.7368421 C53.623431,78.0053524 47.4885469,84 40.2175732,84 Z M40.2175732,60.6958073 C34.537125,60.6958073 30.0685058,65.2667261 30.0685058,70.7368421 C30.0685058,76.3568243 34.6886036,80.7778769 40.2175732,80.7778769 C45.8980214,80.7778769 50.3666407,76.2069581 50.3666407,70.7368421 C50.3666407,65.191793 45.7465428,60.6958073 40.2175732,60.6958073 Z" id="Shape"></path>
                    <path d="M59.209205,82.8947368 L59.209205,57.4736842 L62.390256,57.4736842 C62.6932132,57.4736842 62.8446919,57.548452 63.0719098,57.6979876 C63.2991277,57.7727554 63.5263456,57.9970588 63.6778243,58.1465944 L78.3712503,78.7825077 L78.3712503,57.4736842 L81.5523013,57.4736842 L81.5523013,82.7452012 L78.295511,82.7452012 C78.068293,82.7452012 77.8410751,82.6704334 77.6138572,82.5208978 C77.3866392,82.44613 77.2351606,82.2218266 77.0079427,82.072291 L62.2387774,61.5111455 L62.2387774,82.819969 L59.209205,82.8947368 Z" id="Shape"></path>
                    <path d="M89.3723849,82.8947368 L89.3723849,57.4736842 L92.5534359,57.4736842 C92.8563932,57.4736842 93.0078718,57.548452 93.2350897,57.6979876 C93.4623076,57.7727554 93.6895256,57.9970588 93.8410042,58.1465944 L108.53443,78.7825077 L108.53443,57.4736842 L111.715481,57.4736842 L111.715481,82.7452012 L108.458691,82.7452012 C108.231473,82.7452012 108.004255,82.6704334 107.777037,82.5208978 C107.549819,82.3713622 107.398341,82.2218266 107.171123,82.072291 L92.5534359,61.5111455 L92.5534359,82.819969 L89.3723849,82.819969 L89.3723849,82.8947368 Z" id="Shape"></path>
                    <path d="M243.539749,82.8947368 L243.539749,57.4736842 L246.7208,57.4736842 C247.023757,57.4736842 247.175236,57.548452 247.402454,57.6979876 C247.629672,57.7727554 247.85689,57.9970588 248.008368,58.1465944 L262.701794,78.7825077 L262.701794,57.4736842 L265.882845,57.4736842 L265.882845,82.7452012 L262.626055,82.7452012 C262.398837,82.7452012 262.171619,82.6704334 261.944401,82.5208978 C261.717183,82.3713622 261.565705,82.2218266 261.338487,82.072291 L246.569321,61.5111455 L246.569321,82.819969 L243.539749,82.8947368 Z" id="Shape"></path>
                    <rect id="Rectangle-path" x="202.205021" y="57.4736842" width="2.23430962" height="25.4210526"></rect>
                    <polygon id="Shape" points="183.648418 82.8947368 183.648418 60.0982767 173.158996 60.0982767 173.158996 57.4736842 197.736402 57.4736842 197.736402 60.0982767 186.940719 60.0982767 186.940719 82.8947368"></polygon>
                    <polygon id="Shape" points="119.535565 82.8947368 119.535565 57.4736842 141.878661 57.4736842 141.878661 60.6981835 122.805286 60.6981835 122.805286 68.8719143 137.830435 68.8719143 137.830435 71.4965068 122.805286 71.4965068 122.805286 79.6702375 141.878661 79.6702375 141.878661 82.8947368"></polygon>
                    <polygon id="Shape" points="33.5906413 50.8421053 33.5906413 30.2506782 11.1715481 30.2506782 11.1715481 50.8421053 0 50.8421053 0 0 11.1715481 0 11.1715481 20.6663049 33.5906413 20.6663049 33.5906413 0 44.6861925 0 44.6861925 50.8421053"></polygon>
                    <path d="M73.6564783,50.8421053 C61.3867102,50.8421053 51.3891213,40.9436423 51.3891213,28.7955286 L51.3891213,0 L62.5227998,0 L62.5227998,28.7205403 C62.5227998,34.7945971 67.5215942,39.818817 73.7322176,39.818817 C79.8671016,39.818817 84.9416353,34.8695855 84.9416353,28.7205403 L84.9416353,0 L96.0753138,0 L96.0753138,28.7205403 C96.0753138,40.8686539 86.0019857,50.8421053 73.6564783,50.8421053" id="Shape"></path>
                    <path d="M202.433012,50.8421053 L202.433012,38.8439683 L179.861925,38.8439683 L179.861925,50.6921286 L168.690377,50.6921286 L168.690377,22.0465766 C168.690377,9.89846297 178.721971,0 191.033473,0 C203.344975,0 213.376569,9.89846297 213.376569,22.0465766 L213.376569,50.7671169 L202.433012,50.7671169 L202.433012,50.8421053 Z M179.937922,29.2454588 L202.357015,29.2454588 L202.357015,22.121565 C202.357015,16.0475082 197.341218,11.0232883 191.10947,11.0232883 C184.953719,11.0232883 179.861925,15.9725198 179.861925,22.121565 L179.861925,29.2454588 L179.937922,29.2454588 Z" id="Shape"></path>
                    <path d="M259.185606,50.8421053 C257.819984,50.8421053 256.53023,50.2421984 255.543947,49.1923614 C255.316344,48.9673964 255.240476,48.892408 255.164608,48.7424313 L233.466389,18.0721938 L233.466389,50.8421053 L222.313808,50.8421053 L222.313808,0.0749883558 L229.976465,0.0749883558 C231.417955,0.0749883558 232.783578,0.674895203 233.618124,1.72473218 C233.693992,1.94969725 233.921596,2.02468561 233.997464,2.17466232 L255.847419,32.7699115 L255.847419,0 L267,0 L267,50.7671169 L259.185606,50.8421053 Z" id="Shape"></path>
                    <path d="M152.108066,50.8421053 L152.108066,18.1204558 L138.078001,37.8882257 C137.092105,39.0862724 135.802856,39.7601736 134.134416,39.7601736 C132.617652,39.7601736 131.176726,39.0113945 130.19083,37.7384699 L116.160766,17.9706999 L116.160766,50.6923494 L105.012552,50.6923494 L105.012552,0 L112.596371,0 C112.672209,0 112.672209,0 112.823885,0 C114.264811,0 115.478222,0.599023332 116.464118,1.64731416 C116.539957,1.87194791 116.767471,1.94682583 116.843309,2.09658166 L134.058577,26.4319045 L151.425522,2.09658166 C151.50136,1.87194791 151.728875,1.79706999 151.804713,1.64731416 C152.790609,0.599023332 154.079858,0 155.444946,0 C155.520784,0 163.104603,0 163.104603,0 L163.104603,50.6923494 L152.108066,50.8421053 Z" id="Shape"></path>
                </g>
            </g>
        </g>
    </g>
</svg>