<?xml version="1.0" encoding="UTF-8"?>
<svg width="553px" height="256px" viewBox="0 0 553 256" version="1.1" xmlns="http://www.w3.org/2000/svg" xmlns:xlink="http://www.w3.org/1999/xlink">
    <!-- Generator: Sketch 48.2 (47327) - http://www.bohemiancoding.com/sketch -->
    <title>HC-Guide</title>
    <desc>Created with Sketch.</desc>
    <defs></defs>
    <g id="Page-1" stroke="none" stroke-width="1" fill="none" fill-rule="evenodd">
        <g id="HC-Guide">
            <g id="Logo_vertical-(1)" transform="translate(19.000000, 19.000000)">
                <circle id="Oval" fill="#FFFFFF" cx="110" cy="110" r="110"></circle>
                <g id="Group" transform="translate(6.000000, 5.000000)" fill-rule="nonzero">
                    <path d="M150.235209,43.1287617 C143.541482,41.0123159 136.495454,39.3661914 129.214558,38.1903881 C129.919161,41.6002175 130.50633,45.2452075 131.093499,48.8901975 C139.666166,46.538591 144.480952,46.891332 150.235209,43.1287617" id="Shape" fill="#216194"></path>
                    <path d="M169.737467,80.7576621 C170.676937,80.8752424 171.498974,81.110403 172.438444,81.3455637 C172.086143,79.4642785 171.851275,77.4654131 171.38154,75.7017082 C171.264106,76.1720295 171.029239,76.7599311 170.794371,77.2302524 C170.324636,78.2884753 169.972335,79.5818589 169.737467,80.7576621" id="Shape" fill="#017F9F"></path>
                    <path d="M96.7895278,182.574102 C96.4372264,181.398299 96.3197926,180.222496 96.2023588,179.046693 C96.2023588,178.929112 96.2023588,178.576371 96.084925,178.458791 C92.6793447,178.341211 89.0388969,177.98847 85.6333166,177.518148 C90.4481025,197.624384 97.259263,210.205478 104.657593,210.205478 C105.714497,210.205478 106.536533,210.087898 107.476004,209.617576 C106.301666,206.678068 104.775026,203.150659 103.600688,200.563892 C99.7253728,191.392626 97.3766968,185.748771 96.7895278,182.574102" id="Shape" fill="#76B629"></path>
                    <path d="M49.697907,41.8321808 C59.6797801,37.9520302 70.3662561,35.1301025 81.7573348,33.4839779 C85.1629151,18.551277 89.9777009,6.79324481 95.7319572,0.679068056 C95.6145234,0.679068056 95.6145234,0.679068056 95.3796558,0.679068056 C76.7076814,4.79437933 60.5018167,20.0798212 49.697907,41.8321808" id="Shape" fill="#A53589"></path>
                    <path d="M123.799302,33.3663976 C118.984516,13.1425822 112.173356,0.679068056 104.657593,0.679068056 C97.1418292,0.679068056 90.3306687,13.1425822 85.6333166,33.3663976 C98.433601,31.8378534 110.881584,31.8378534 123.799302,33.3663976" id="Shape" fill="#024F9D"></path>
                    <path d="M103.770522,62.290559 C108.702741,56.8818642 110.933984,57.4697658 118.097445,53.8247758 C120.446121,52.6489726 123.4994,51.1204284 126.904981,49.8270449 C126.200378,45.3589926 125.378341,41.126101 124.556305,37.1283701 C111.286285,35.4822456 97.7813977,35.4822456 84.5113782,37.1283701 C83.4544739,41.9491633 82.6324373,47.0051172 81.8104007,52.2962316 C89.7958992,53.2368742 97.5465301,55.4709003 103.770522,62.290559" id="Shape" fill="#50568C"></path>
                    <path d="M81.0458175,151.489886 C82.1027218,159.367767 83.2770598,166.892908 84.5688316,173.594986 C88.0918456,174.065307 91.6148597,174.300468 95.1378737,174.653209 C94.6681385,172.889504 93.9635357,171.36096 92.7891977,169.244514 C91.2625583,166.892908 85.9780372,158.662285 81.0458175,151.489886" id="Shape" fill="#C6D200"></path>
                    <path d="M113.922894,1.4446052 C118.855114,6.61813938 123.317599,16.4948864 126.840613,30.8396857 C127.192914,32.015489 127.427782,33.0737119 127.545215,34.2495151 C136.470184,35.5428986 145.160286,37.5417641 153.145784,40.2461115 C154.202688,39.0703083 155.259593,37.6593444 156.081629,36.2483806 C145.630021,17.6706897 130.833362,4.97201487 113.922894,1.4446052" id="Shape" fill="#0369B2"></path>
                    <path d="M176.791076,82.4309505 C191.705169,85.8407798 203.448549,90.661573 209.555107,96.4230088 C209.555107,96.3054285 209.555107,96.3054285 209.555107,96.0702679 C206.26696,80.6672457 195.46305,67.0279283 179.492053,56.5632796 C177.84798,59.973109 176.203907,63.8532596 174.324966,68.6740528 C175.264436,73.2596854 176.203907,77.8453179 176.791076,82.4309505" id="Shape" fill="#017F9F"></path>
                    <path d="M209.265312,105.46724 C209.265312,98.0596801 196.817329,91.1224411 176.618716,86.4192282 C178.145355,99.2354834 178.145355,111.816578 176.618716,124.632833 C196.817329,119.81204 209.265312,112.992381 209.265312,105.46724" id="Shape" fill="#007D75"></path>
                    <path d="M151.609703,118.10333 L145.385712,125.51089 C144.915977,126.686693 144.328808,128.097657 143.741639,129.626201 C154.428115,128.567979 164.292554,127.039434 173.100089,125.158149 C174.744162,111.871573 174.744162,98.3498358 173.100089,85.0632594 C171.808317,84.7105184 170.281678,84.4753578 168.755038,84.1226168 C168.755038,84.4753578 168.637605,84.7105184 168.637605,85.0632594 C166.64123,93.5290426 164.409988,103.053049 151.609703,118.10333" id="Shape" fill="#008D6D"></path>
                    <path d="M176.5461,129.266537 C174.902027,140.554248 172.083616,151.371638 168.208301,161.365965 C190.050988,150.430995 205.317382,134.204911 209.192697,115.62722 L209.192697,115.50964 C204.02561,120.565594 194.161171,125.033646 179.834247,128.678636 C178.894777,128.678636 177.720438,129.031377 176.5461,129.266537" id="Shape" fill="#008051"></path>
                    <path d="M144.506222,192.378144 C150.61278,185.911226 156.014734,178.033344 160.242351,169.09724 C156.132168,170.743364 151.904551,172.036748 147.442067,173.447712 C147.442067,177.445443 146.737464,180.737692 145.915427,183.91236 C145.445692,186.499128 144.858523,189.085895 144.506222,192.378144" id="Shape" fill="#46942B"></path>
                    <path d="M12.7529387,65.4133607 C21.2081725,56.5948365 32.2469498,49.4224369 43.8728962,44.2489027 C51.0363581,28.1403985 61.8402678,13.4428583 75.932324,4.50675378 C44.3426314,13.5604386 18.7420626,37.076503 6.88124866,67.4122261 C8.17302048,66.8243245 9.34735849,66.4715836 12.7529387,65.4133607" id="Shape" fill="#D5146E"></path>
                    <path d="M133.154908,156.510418 L133.037474,156.863159 C139.261466,159.097185 145.837758,163.682818 146.777229,168.386031 C146.777229,168.738771 146.894663,168.973932 146.894663,169.326673 C152.414051,167.680549 157.581139,165.916844 162.513358,163.682818 C166.858409,153.57091 170.146555,142.165619 172.025496,130.054845 C162.748226,131.936131 152.531485,133.464675 141.610142,134.522898 L139.966068,138.87337 C137.030223,146.16335 133.976944,154.041231 133.154908,156.510418" id="Shape" fill="#15A338"></path>
                    <path d="M180.441632,52.5977728 C190.423505,59.0646905 199.23104,67.0601524 205.10273,76.5841585 C201.344848,63.2975821 195.003423,51.0692286 186.665623,40.4869996 C185.96102,42.0155438 185.02155,43.6616683 184.082079,45.3077928 C183.142609,47.5418189 181.850837,50.0110057 180.441632,52.5977728" id="Shape" fill="#0080C7"></path>
                    <path d="M133.802057,4.50675378 C143.78393,10.9736715 152.239164,20.262517 158.932891,31.1974869 C160.224663,27.4349166 161.281567,22.9668644 161.751302,17.3230089 C153.178635,11.6791534 143.78393,7.32868151 133.802057,4.50675378" id="Shape" fill="#0089D0"></path>
                    <path d="M43.5155409,166.747496 C27.42711,159.575097 12.7478848,148.757707 3.82291592,134.648068 C13.8047891,169.334263 41.049431,196.612898 75.6924025,206.607226 C61.6003463,197.788701 50.7964366,182.856 43.5155409,166.747496" id="Shape" fill="#E9BB00"></path>
                    <path d="M165.936627,166.747496 C160.534672,178.623109 153.136343,190.0284 144.09394,198.611764 C143.976506,200.140308 143.976506,201.551272 143.741639,203.197396 C173.687258,191.321784 196.939151,165.924434 205.86412,134.648068 C196.821717,148.757707 182.142492,159.575097 165.936627,166.747496" id="Shape" fill="#007632"></path>
                    <path d="M41.606943,50.4389825 C33.9737459,54.2015528 27.1625854,58.669605 21.4083292,63.7255589 C27.397453,62.0794343 33.6214445,60.3157295 39.0233994,58.0817034 C39.845436,55.4949363 40.7849064,52.9081692 41.606943,50.4389825" id="Shape" fill="#C51553"></path>
                    <path d="M54.3851513,51.5945449 C67.537737,52.3000268 77.7544778,52.5351874 77.7544778,52.5351874 C78.4590806,47.5968139 79.2811172,42.6584404 80.3380214,38.1903881 C68.124906,40.0716733 56.8512611,43.3639223 46.7519542,47.7143942 C45.6950499,50.3011613 44.6381457,52.8879284 43.5812415,55.5922758 C49.4529316,52.6527678 48.2785936,51.8297055 54.3851513,51.5945449" id="Shape" fill="#593872"></path>
                    <path d="M60.0667924,124.488089 C54.6648375,121.31342 50.0849193,117.433269 45.7398686,113.788279 C42.569156,111.083932 39.0461419,108.026844 35.1708265,105.557657 C35.1708265,112.377316 35.6405617,119.079394 36.3451645,125.781472 C45.2701334,127.662757 55.604308,129.191302 66.7605191,130.249525 C66.1733501,129.308882 65.4687473,128.48582 64.5292769,127.662757 C63.2375051,126.604535 61.7108656,125.311151 60.0667924,124.488089" id="Shape" fill="#F19000"></path>
                    <path d="M41.7489799,161.013224 C37.8736645,151.018897 35.0552533,140.319088 33.41118,128.913796 C18.9668224,125.621547 7.69317748,121.153495 1.35175219,115.50964 L0.764583184,115.979961 C5.34450145,134.322491 20.3760281,150.313415 41.7489799,161.013224" id="Shape" fill="#F9B800"></path>
                    <path d="M70.2286067,134.640478 C58.4852265,133.582255 47.4464492,132.053711 37.464576,130.054845 C39.3435169,142.283199 42.6316633,153.57091 46.976714,163.682818 C57.0760209,168.03329 68.4670997,171.325539 80.5627812,173.206824 C78.8012742,164.50588 77.2746348,154.864293 76.4525982,144.399645 C74.6910911,141.930458 72.9295841,138.520629 70.2286067,134.640478" id="Shape" fill="#FDDB00"></path>
                    <path d="M15.2739751,104.147921 L15.1565413,104.265502 L4.58749911,112.731285 C9.75458638,117.199337 19.7364595,121.197068 32.8890453,124.371737 C31.9495749,117.199337 31.7147073,110.026937 31.8321411,102.854538 C29.1311636,101.678734 26.4301862,100.973253 23.611775,100.973253 C20.4410623,100.855672 17.7400849,101.913895 15.2739751,104.147921" id="Shape" fill="#E43311"></path>
                    <path d="M81.7573348,177.445443 C70.4836899,175.799318 59.6797801,172.97739 49.697907,169.09724 C60.6192505,190.96718 76.8251152,206.252622 95.3796558,210.132772 L95.4970896,210.132772 C90.4474361,204.959238 85.9849517,195.082491 82.3445038,180.737692 C82.3445038,179.797049 82.1096362,178.621246 81.7573348,177.445443" id="Shape" fill="#B7C200"></path>
                    <path d="M23.3693265,96.6854594 C33.2337659,96.6854594 41.8064334,103.857859 48.9698953,109.972036 C53.3149459,113.499445 57.6599966,117.379596 62.7096501,120.436684 C64.8234585,121.612488 66.5849655,123.023452 67.8767373,124.434415 C70.1079796,126.668442 70.460281,127.138763 71.634619,129.020048 C72.808957,130.901333 73.7484274,132.194717 74.3355964,132.194717 C75.5099344,132.194717 78.0934781,130.901333 78.4457795,128.902468 C79.3852499,124.904737 75.5099344,121.142166 72.4566556,118.320239 C68.3464725,114.322508 61.8876134,107.150108 60.1261064,103.857859 C46.0340502,77.5198669 77.1540077,56.0026679 95.8259821,71.1705295 C97.7049229,69.4068246 99.5838638,67.0552182 100.993069,65.526674 C91.0111962,54.591704 76.6842724,57.1784711 62.122481,56.1202482 C60.0086726,56.0026679 54.1369825,55.5323466 52.4929093,56.0026679 C50.7314023,56.5905695 48.9698953,57.5312121 47.9129911,58.236694 C34.5255377,65.6442543 16.0884308,67.2903788 4.93221967,73.4045556 C1.76150702,83.398883 0,94.0986923 0,105.268823 C0,107.032528 0,108.796233 0.117433802,110.677518 L12.3305492,101.035931 C15.6186956,97.9788429 19.1417097,96.6854594 23.3693265,96.6854594" id="Shape" fill="#E64E10"></path>
                    <path d="M128.694284,53.6806295 C123.057462,55.7970753 118.594977,58.7365833 115.306831,59.7948062 C109.082839,62.0288323 108.260803,63.7925372 103.680884,68.848491 C102.389112,70.3770352 100.510172,72.6110613 98.6312308,74.3747662 C98.6312308,74.4923465 98.6312308,75.0802481 99.2183998,75.9033104 C100.862473,78.2549168 103.211149,77.4318545 105.324957,75.4329891 C127.519946,54.2685311 145.25245,72.6110613 147.483692,83.6636116 C148.540596,88.7195655 149.010332,96.5974471 142.903774,109.296122 C145.839619,110.354345 147.953427,112.11805 148.305729,115.292718 C164.629027,95.8919651 162.397785,87.073441 166.742836,75.1978284 C174.728334,52.3872459 180.247723,44.744525 184.357906,36.6314827 C178.838517,30.3997257 172.73196,24.5207096 165.920799,19.8174967 C161.810616,52.2696656 141.964304,48.8598362 128.694284,53.6806295" id="Shape" fill="#079DE1"></path>
                    <path d="M139.577723,192.757381 C140.164892,183.115795 144.040208,178.647743 142.278701,169.358897 C141.808966,167.007291 136.054709,162.186498 129.478416,160.540373 L127.364608,160.187632 L128.891247,155.366839 C129.830718,152.19217 134.293202,141.02204 138.168518,131.380453 C138.638253,130.32223 143.570473,118.916939 143.335605,116.918074 C142.983304,115.154369 140.986929,113.978565 139.577723,113.978565 C138.168518,113.978565 136.759312,116.565333 135.232673,119.1521 C133.118864,122.561929 131.827092,125.854178 130.065585,129.146427 C128.186645,132.673837 126.072836,136.436407 123.841594,140.434138 C121.610352,144.549449 119.026808,149.252662 116.090963,154.543777 C114.799191,157.130544 112.567949,158.423927 109.866972,158.423927 C107.518295,158.423927 104.817318,157.718445 104.112715,157.130544 C103.408112,156.542642 85.7930422,136.553987 81.4479915,132.438676 C80.1562197,134.555122 78.0424113,135.966086 75.6937352,136.553987 C81.9177267,145.960413 93.8959745,163.479881 96.2446505,167.124871 C99.7676646,172.651146 99.6502308,176.178556 100.824569,182.175152 C101.529172,186.525624 108.5752,201.105584 112.098214,210.39443 C121.375484,209.688948 130.417887,207.807663 138.755687,204.868154 C138.990554,200.752843 139.342856,196.637532 139.577723,192.757381" id="Shape" fill="#93BF1F"></path>
                </g>
            </g>
            <g id="Group-3" transform="translate(262.000000, 48.000000)">
                <path d="M34.0664982,156.018613 C36.0968415,156.018613 37.8951187,155.844586 39.4613836,155.496527 C41.0276485,155.148468 42.5068765,154.684397 43.8991119,154.104299 L43.8991119,144.489221 L37.6340837,144.489221 C36.7059267,144.489221 35.980815,144.242683 35.4587267,143.749599 C34.9366384,143.256516 34.6755981,142.63292 34.6755981,141.878792 L34.6755981,133.786464 L57.2122969,133.786464 L57.2122969,160.543355 C55.5880222,161.732556 53.8985118,162.754964 52.143715,163.610609 C50.3889183,164.466253 48.5181299,165.169612 46.5312939,165.720705 C44.5444579,166.271798 42.4271316,166.677861 40.1792514,166.938905 C37.9313712,167.199949 35.5167491,167.330469 32.9353125,167.330469 C28.2945277,167.330469 24.0018661,166.511093 20.0571989,164.872316 C16.1125318,163.233539 12.6972554,160.97119 9.81126735,158.085202 C6.92527927,155.199214 4.66293059,151.776686 3.02415344,147.817517 C1.38537629,143.858347 0.566,139.558434 0.566,134.91765 C0.566,130.18985 1.3491207,125.846431 2.91538559,121.887261 C4.48165047,117.928091 6.7222458,114.512815 9.63723879,111.641329 C12.5522318,108.769844 16.0762749,106.5365 20.2094739,104.94123 C24.3426729,103.34596 28.9616348,102.548337 34.0664982,102.548337 C36.7059446,102.548337 39.1858268,102.765871 41.5062192,103.200944 C43.8266116,103.636018 45.9656913,104.230609 47.9235224,104.984737 C49.8813535,105.738865 51.6723796,106.638003 53.2966543,107.68218 C54.920929,108.726356 56.3711525,109.857531 57.6473683,111.075737 L53.3836685,117.558301 C52.9775999,118.167404 52.491775,118.645977 51.9261793,118.994036 C51.3605837,119.342095 50.7442387,119.516122 50.0771259,119.516122 C49.2069787,119.516122 48.3078401,119.226077 47.3796832,118.645979 C46.2194869,117.949861 45.1245682,117.348019 44.0948941,116.840433 C43.0652199,116.332847 42.0138079,115.919533 40.9406264,115.600479 C39.8674449,115.281425 38.7362705,115.04939 37.5470694,114.904365 C36.3578683,114.75934 35.0236627,114.686829 33.5444125,114.686829 C30.7889465,114.686829 28.3090643,115.172654 26.1046915,116.144318 C23.9003187,117.115983 22.0222792,118.486444 20.4705168,120.255743 C18.9187543,122.025043 17.7223199,124.14962 16.8811777,126.629539 C16.0400354,129.109459 15.6194706,131.872135 15.6194706,134.91765 C15.6194706,138.282219 16.0835421,141.269679 17.0116991,143.880121 C17.9398561,146.490562 19.2233039,148.694902 20.862081,150.493206 C22.5008582,152.29151 24.4441577,153.661971 26.6920379,154.604631 C28.939918,155.54729 31.3980469,156.018613 34.0664982,156.018613 Z M92.540095,155.017949 C94.5124285,155.017949 96.2744501,154.691648 97.8262126,154.039038 C99.377975,153.386427 100.690427,152.451033 101.763609,151.232827 C102.83679,150.014621 103.656167,148.528142 104.221762,146.773345 C104.787358,145.018549 105.070151,143.024491 105.070151,140.791114 L105.070151,103.244451 L119.775565,103.244451 L119.775565,140.791114 C119.775565,144.677771 119.144718,148.245321 117.883004,151.49387 C116.621291,154.74242 114.815763,157.541351 112.466365,159.890748 C110.116968,162.240146 107.260028,164.067427 103.895459,165.372648 C100.53089,166.677869 96.7458063,167.330469 92.540095,167.330469 C88.3053788,167.330469 84.5057932,166.677869 81.1412242,165.372648 C77.7766552,164.067427 74.9197148,162.240146 72.5703175,159.890748 C70.2209202,157.541351 68.422643,154.74242 67.1754321,151.49387 C65.9282212,148.245321 65.304625,144.677771 65.304625,140.791114 L65.304625,103.244451 L80.0100385,103.244451 L80.0100385,140.747606 C80.0100385,142.980984 80.2928321,144.975041 80.8584278,146.729838 C81.4240234,148.484635 82.2433997,149.978365 83.3165812,151.211074 C84.3897627,152.443782 85.702215,153.386427 87.2539774,154.039038 C88.8057399,154.691648 90.5677614,155.017949 92.540095,155.017949 Z M145.444778,166.634355 L130.65235,166.634355 L130.65235,103.244451 L145.444778,103.244451 L145.444778,166.634355 Z M214.708145,134.91765 C214.708145,139.500425 213.917774,143.727826 212.337006,147.599981 C210.756239,151.472136 208.530146,154.822152 205.65866,157.650131 C202.787175,160.478109 199.328392,162.682449 195.282207,164.263216 C191.236023,165.843983 186.747581,166.634355 181.816747,166.634355 L157.191706,166.634355 L157.191706,103.244451 L181.816747,103.244451 C186.747581,103.244451 191.236023,104.042074 195.282207,105.637344 C199.328392,107.232614 202.787175,109.436954 205.65866,112.250429 C208.530146,115.063905 210.756239,118.40667 212.337006,122.278825 C213.917774,126.15098 214.708145,130.363879 214.708145,134.91765 Z M199.654675,134.91765 C199.654675,131.78512 199.248612,128.957184 198.436475,126.433757 C197.624338,123.91033 196.456908,121.771251 194.93415,120.016454 C193.411393,118.261657 191.547855,116.912949 189.343483,115.97029 C187.13911,115.027631 184.630223,114.556308 181.816747,114.556308 L171.984134,114.556308 L171.984134,155.322499 L181.816747,155.322499 C184.630223,155.322499 187.13911,154.851176 189.343483,153.908516 C191.547855,152.965857 193.411393,151.617149 194.93415,149.862352 C196.456908,148.107556 197.624338,145.968476 198.436475,143.445049 C199.248612,140.921622 199.654675,138.079184 199.654675,134.91765 Z M262.566,103.244451 L262.566,114.556308 L236.54873,114.556308 L236.54873,129.348736 L256.475,129.348736 L256.475,140.225521 L236.54873,140.225521 L236.54873,155.322499 L262.566,155.322499 L262.566,166.634355 L221.756302,166.634355 L221.756302,103.244451 L262.566,103.244451 Z" id="GUIDE" fill="#15A338"></path>
                <g id="Group-2" fill="#000000" fill-rule="nonzero">
                    <path d="M13.3596817,83 C5.9627958,83 0,77.0767172 0,69.8947368 C0,62.6387154 6.03827423,56.7894737 13.3596817,56.7894737 C16.9826463,56.7894737 20.5301324,58.2702944 23.0209205,60.8617306 L20.5301324,62.8608385 C18.6431717,61.0098127 16.0014267,59.9732382 13.3596817,59.9732382 C7.69879964,59.9732382 3.2455724,64.4897413 3.2455724,69.8947368 C3.2455724,75.3737734 7.8497565,79.8162355 13.3596817,79.8162355 C16.0014267,79.8162355 18.6431717,78.779661 20.5301324,76.9286351 L23.0209205,78.9277431 C20.6056108,81.5932203 17.1336031,83 13.3596817,83" id="Shape"></path>
                    <path d="M154.773908,83 C147.377022,83 141.414226,77.0767172 141.414226,69.8947368 C141.414226,62.6387154 147.4525,56.7894737 154.773908,56.7894737 C158.396872,56.7894737 161.944358,58.2702944 164.435146,60.8617306 L161.944358,62.8608385 C160.057398,61.0098127 157.415653,59.9732382 154.773908,59.9732382 C149.113026,59.9732382 144.659798,64.4897413 144.659798,69.8947368 C144.659798,75.3737734 149.263982,79.8162355 154.773908,79.8162355 C157.415653,79.8162355 160.057398,78.779661 161.944358,76.9286351 L164.435146,78.9277431 C161.944358,81.5932203 158.472351,83 154.773908,83" id="Shape"></path>
                    <path d="M220.343096,83 C213.059641,83 207.188285,77.0767172 207.188285,69.8947368 C207.188285,62.6387154 213.133962,56.7894737 220.343096,56.7894737 C227.55223,56.7894737 233.497908,62.7127565 233.497908,69.8947368 C233.497908,77.1507583 227.55223,83 220.343096,83 Z M220.343096,59.9732382 C214.769023,59.9732382 210.384086,64.4897413 210.384086,69.8947368 C210.384086,75.3737734 214.917665,79.8162355 220.343096,79.8162355 C225.917169,79.8162355 230.302106,75.2997324 230.302106,69.8947368 C230.302106,64.4897413 225.842848,59.9732382 220.343096,59.9732382 Z" id="Shape"></path>
                    <path d="M39.4644351,83 C32.1809801,83 26.3096234,77.0767172 26.3096234,69.8947368 C26.3096234,62.6387154 32.255301,56.7894737 39.4644351,56.7894737 C46.6735693,56.7894737 52.6192469,62.7127565 52.6192469,69.8947368 C52.6192469,77.0767172 46.5992483,83 39.4644351,83 Z M39.4644351,59.9732382 C33.8903624,59.9732382 29.5054251,64.4897413 29.5054251,69.8947368 C29.5054251,75.4478145 34.0390043,79.8162355 39.4644351,79.8162355 C45.0385079,79.8162355 49.4234451,75.2997324 49.4234451,69.8947368 C49.4234451,64.4157003 44.889866,59.9732382 39.4644351,59.9732382 Z" id="Shape"></path>
                    <path d="M58.1004184,81.9078947 L58.1004184,56.7894737 L61.2218992,56.7894737 C61.519183,56.7894737 61.667825,56.8633514 61.8907879,57.0111068 C62.1137508,57.0849845 62.3367137,57.3066176 62.4853556,57.4543731 L76.9036239,77.8446207 L76.9036239,56.7894737 L80.0251046,56.7894737 L80.0251046,81.7601393 L76.8293029,81.7601393 C76.60634,81.7601393 76.3833771,81.6862616 76.1604142,81.5385062 C75.9374512,81.4646285 75.7888093,81.2429954 75.5658464,81.0952399 L61.0732572,60.77887 L61.0732572,81.834017 L58.1004184,81.9078947 Z" id="Shape"></path>
                    <path d="M87.6987448,81.9078947 L87.6987448,56.7894737 L90.8202255,56.7894737 C91.1175094,56.7894737 91.2661513,56.8633514 91.4891142,57.0111068 C91.7120772,57.0849845 91.9350401,57.3066176 92.083682,57.4543731 L106.50195,77.8446207 L106.50195,56.7894737 L109.623431,56.7894737 L109.623431,81.7601393 L106.427629,81.7601393 C106.204666,81.7601393 105.981703,81.6862616 105.758741,81.5385062 C105.535778,81.3907508 105.387136,81.2429954 105.164173,81.0952399 L90.8202255,60.77887 L90.8202255,81.834017 L87.6987448,81.834017 L87.6987448,81.9078947 Z" id="Shape"></path>
                    <path d="M238.979079,81.9078947 L238.979079,56.7894737 L242.10056,56.7894737 C242.397844,56.7894737 242.546486,56.8633514 242.769449,57.0111068 C242.992412,57.0849845 243.215375,57.3066176 243.364017,57.4543731 L257.782285,77.8446207 L257.782285,56.7894737 L260.903766,56.7894737 L260.903766,81.7601393 L257.707964,81.7601393 C257.485001,81.7601393 257.262038,81.6862616 257.039075,81.5385062 C256.816112,81.3907508 256.66747,81.2429954 256.444507,81.0952399 L241.951918,60.77887 L241.951918,81.834017 L238.979079,81.9078947 Z" id="Shape"></path>
                    <rect id="Rectangle-path" x="198.41841" y="56.7894737" width="2.19246862" height="25.1184211"></rect>
                    <polygon id="Shape" points="180.209309 81.9078947 180.209309 59.382821 169.916318 59.382821 169.916318 56.7894737 194.033473 56.7894737 194.033473 59.382821 183.439956 59.382821 183.439956 81.9078947"></polygon>
                    <polygon id="Shape" points="117.297071 81.9078947 117.297071 56.7894737 139.221757 56.7894737 139.221757 59.9755861 120.505562 59.9755861 120.505562 68.0520106 135.24934 68.0520106 135.24934 70.6453579 120.505562 70.6453579 120.505562 78.7217823 139.221757 78.7217823 139.221757 81.9078947"></polygon>
                    <polygon id="Shape" points="32.9616031 50.2368421 32.9616031 29.8905511 10.9623431 29.8905511 10.9623431 50.2368421 0 50.2368421 0 0 10.9623431 0 10.9623431 20.4202775 32.9616031 20.4202775 32.9616031 0 43.8493724 0 43.8493724 50.2368421"></polygon>
                    <path d="M72.2771435,50.2368421 C60.2371463,50.2368421 50.4267782,40.456218 50.4267782,28.4527247 L50.4267782,0 L61.3519609,0 L61.3519609,28.3786291 C61.3519609,34.3803757 66.2571449,39.3447834 72.3514644,39.3447834 C78.371463,39.3447834 83.350968,34.4544714 83.350968,28.3786291 L83.350968,0 L94.2761506,0 L94.2761506,28.3786291 C94.2761506,40.3821223 84.3914616,50.2368421 72.2771435,50.2368421" id="Shape"></path>
                    <path d="M198.642131,50.2368421 L198.642131,38.3815401 L176.493724,38.3815401 L176.493724,50.0886508 L165.531381,50.0886508 L165.531381,21.7841174 C165.531381,9.78062413 175.375117,0 187.456067,0 C199.537016,0 209.380753,9.78062413 209.380753,21.7841174 L209.380753,50.1627465 L198.642131,50.1627465 L198.642131,50.2368421 Z M176.568298,28.8972986 L198.567558,28.8972986 L198.567558,21.858213 C198.567558,15.8564664 193.645689,10.8920587 187.530641,10.8920587 C181.490166,10.8920587 176.493724,15.7823707 176.493724,21.858213 L176.493724,28.8972986 L176.568298,28.8972986 Z" id="Shape"></path>
                    <path d="M254.331943,50.2368421 C252.991895,50.2368421 251.726293,49.644077 250.75848,48.6067381 C250.535139,48.3844512 250.460691,48.3103555 250.386244,48.1621643 L229.094359,17.8570486 L229.094359,50.2368421 L218.150628,50.2368421 L218.150628,0.0740956373 L225.66979,0.0740956373 C227.084286,0.0740956373 228.424335,0.666860736 229.243253,1.70419966 C229.3177,1.92648657 229.541042,2.00058221 229.615489,2.14877348 L251.056269,32.3797935 L251.056269,0 L262,0 L262,50.1627465 L254.331943,50.2368421 Z" id="Shape"></path>
                    <path d="M149.2596,50.2368421 L149.2596,17.9047361 L135.492271,37.4371754 C134.524837,38.6209596 133.259731,39.2868382 131.622535,39.2868382 C130.134175,39.2868382 128.720233,38.5469731 127.752799,37.2892024 L113.98547,17.756763 L113.98547,50.0888691 L103.046025,50.0888691 L103.046025,0 L110.487825,0 C110.562243,0 110.562243,0 110.711079,0 C112.12502,0 113.315708,0.591892101 114.283142,1.62770328 C114.35756,1.84966282 114.580814,1.92364933 114.655232,2.07162235 L131.548117,26.117239 L148.589838,2.07162235 C148.664256,1.84966282 148.88751,1.7756763 148.961928,1.62770328 C149.929362,0.591892101 151.194468,0 152.533992,0 C152.60841,0 160.050209,0 160.050209,0 L160.050209,50.0888691 L149.2596,50.2368421 Z" id="Shape"></path>
                </g>
            </g>
        </g>
    </g>
</svg>