<?xml version="1.0" encoding="UTF-8"?><svg xmlns="http://www.w3.org/2000/svg" xmlns:xlink="http://www.w3.org/1999/xlink" fill-opacity="1" color-rendering="auto" color-interpolation="auto" text-rendering="auto" stroke="black" stroke-linecap="square" width="645" stroke-miterlimit="10" shape-rendering="auto" stroke-opacity="1" fill="black" stroke-dasharray="none" font-weight="normal" stroke-width="1" height="880" font-family="'Dialog'" font-style="normal" stroke-linejoin="miter" font-size="12px" stroke-dashoffset="0" image-rendering="auto">
  <!--Generated by ySVG 2.5-->
  <defs id="genericDefs"/>
  <g>
    <defs id="defs1">
      <linearGradient x1="436" gradientUnits="userSpaceOnUse" x2="622" y1="-80" y2="-40" id="linearGradient1" spreadMethod="reflect">
        <stop stop-opacity="1" stop-color="rgb(204,255,204)" offset="0%"/>
        <stop stop-opacity="1" stop-color="rgb(153,255,204)" offset="100%"/>
      </linearGradient>
      <linearGradient x1="7" gradientUnits="userSpaceOnUse" x2="173" y1="315" y2="405" id="linearGradient2" spreadMethod="reflect">
        <stop stop-opacity="1" stop-color="rgb(204,255,204)" offset="0%"/>
        <stop stop-opacity="1" stop-color="rgb(153,255,204)" offset="100%"/>
      </linearGradient>
      <linearGradient x1="436" gradientUnits="userSpaceOnUse" x2="622" y1="-20" y2="20" id="linearGradient3" spreadMethod="reflect">
        <stop stop-opacity="1" stop-color="rgb(204,255,204)" offset="0%"/>
        <stop stop-opacity="1" stop-color="rgb(153,255,204)" offset="100%"/>
      </linearGradient>
      <linearGradient x1="436" gradientUnits="userSpaceOnUse" x2="622" y1="92" y2="132" id="linearGradient4" spreadMethod="reflect">
        <stop stop-opacity="1" stop-color="rgb(204,255,204)" offset="0%"/>
        <stop stop-opacity="1" stop-color="rgb(153,255,204)" offset="100%"/>
      </linearGradient>
      <linearGradient x1="436" gradientUnits="userSpaceOnUse" x2="622" y1="204" y2="244" id="linearGradient5" spreadMethod="reflect">
        <stop stop-opacity="1" stop-color="rgb(204,255,204)" offset="0%"/>
        <stop stop-opacity="1" stop-color="rgb(153,255,204)" offset="100%"/>
      </linearGradient>
      <linearGradient x1="436" gradientUnits="userSpaceOnUse" x2="622" y1="340" y2="380" id="linearGradient6" spreadMethod="reflect">
        <stop stop-opacity="1" stop-color="rgb(204,255,204)" offset="0%"/>
        <stop stop-opacity="1" stop-color="rgb(153,255,204)" offset="100%"/>
      </linearGradient>
      <linearGradient x1="436" gradientUnits="userSpaceOnUse" x2="622" y1="476" y2="516" id="linearGradient7" spreadMethod="reflect">
        <stop stop-opacity="1" stop-color="rgb(204,255,204)" offset="0%"/>
        <stop stop-opacity="1" stop-color="rgb(153,255,204)" offset="100%"/>
      </linearGradient>
      <linearGradient x1="436" gradientUnits="userSpaceOnUse" x2="622" y1="730" y2="770" id="linearGradient8" spreadMethod="reflect">
        <stop stop-opacity="1" stop-color="rgb(204,255,204)" offset="0%"/>
        <stop stop-opacity="1" stop-color="rgb(153,255,204)" offset="100%"/>
      </linearGradient>
      <clipPath clipPathUnits="userSpaceOnUse" id="clipPath1">
        <path d="M0 0 L645 0 L645 880 L0 880 L0 0 Z"/>
      </clipPath>
      <clipPath clipPathUnits="userSpaceOnUse" id="clipPath2">
        <path d="M0 0 L0 17 L185 17 L185 0 Z"/>
      </clipPath>
      <clipPath clipPathUnits="userSpaceOnUse" id="clipPath3">
        <path d="M0 0 L0 17 L93 17 L93 0 Z"/>
      </clipPath>
      <clipPath clipPathUnits="userSpaceOnUse" id="clipPath4">
        <path d="M0 0 L0 17 L111 17 L111 0 Z"/>
      </clipPath>
      <clipPath clipPathUnits="userSpaceOnUse" id="clipPath5">
        <path d="M0 0 L0 17 L191 17 L191 0 Z"/>
      </clipPath>
      <clipPath clipPathUnits="userSpaceOnUse" id="clipPath6">
        <path d="M0 0 L0 17 L129 17 L129 0 Z"/>
      </clipPath>
      <clipPath clipPathUnits="userSpaceOnUse" id="clipPath7">
        <path d="M0 0 L0 17 L86 17 L86 0 Z"/>
      </clipPath>
      <clipPath clipPathUnits="userSpaceOnUse" id="clipPath8">
        <path d="M0 0 L0 17 L59 17 L59 0 Z"/>
      </clipPath>
      <clipPath clipPathUnits="userSpaceOnUse" id="clipPath9">
        <path d="M0 0 L0 17 L97 17 L97 0 Z"/>
      </clipPath>
      <script type="text/ecmascript"><![CDATA[      var SVGDocument = null;
      var SVGRoot = null;
      var TrueCoords = null;
      var lastElement = null;
      var initialized = null;
      var tipGroup;
      function Init(evt)
      {
         SVGDocument = evt.target.ownerDocument;
         SVGRoot = SVGDocument.documentElement;
         TrueCoords = SVGRoot.createSVGPoint();
         initialized = evt;
      };
      function GetTrueCoords(evt)
      {
         var newScale = SVGRoot.currentScale;
         var translation = SVGRoot.currentTranslate;
         TrueCoords.x = (evt.clientX - translation.x)/newScale;
         TrueCoords.y = (evt.clientY - translation.y)/newScale;
      };
      function HideTooltip( evt )
      {
         if(initialized == null) {
           Init(evt);
         }
         if(tipGroup != null) {
           tipGroup.setAttributeNS(null, 'visibility', 'hidden');
         }
      };
      function ShowTooltip( evt )
      {
         if(initialized == null) {
           Init(evt);
         }
         GetTrueCoords( evt );
         var tipScale = 1/SVGRoot.currentScale;
         var targetElement = evt.currentTarget;
         if ( lastElement != targetElement )
         {
            var targetId = targetElement.getAttributeNS(null, 'id');
            var tipId = 'tooltip.' + targetId;
            tipGroup = SVGDocument.getElementById(tipId);
            var xPos = TrueCoords.x + (10 * tipScale);
            var yPos = TrueCoords.y + (10 * tipScale);
            tipGroup.setAttributeNS(null, 'transform', 'translate(' + xPos + ',' + yPos + ') scale(' + tipScale + ')');
            tipGroup.setAttributeNS(null, 'visibility', 'visible');
         }
      };
]]></script>
    </defs>
    <g onmouseout="HideTooltip(evt)" id="y.node.0" onmousemove="ShowTooltip(evt)">
      <a target="_blank" xlink:type="simple" xlink:href="/services/installation.html" xlink:show="new">
        <g fill="url(#linearGradient1)" text-rendering="geometricPrecision" shape-rendering="geometricPrecision" transform="matrix(1,0,0,1,8,95)" stroke="url(#linearGradient1)">
          <rect x="436" y="-80" width="186" rx="20" ry="20" height="40" stroke="none"/>
        </g>
        <g text-rendering="geometricPrecision" stroke-miterlimit="1.45" shape-rendering="geometricPrecision" transform="matrix(1,0,0,1,8,95)" stroke-linecap="butt">
          <rect x="436" y="-80" fill="none" width="186" rx="20" ry="20" height="40"/>
        </g>
        <g>
          <g text-rendering="geometricPrecision" stroke-miterlimit="1.45" shape-rendering="geometricPrecision" font-family="sans-serif" transform="matrix(1,0,0,1,8,95)" stroke-linecap="butt">
            <text x="495.7686" xml:space="preserve" y="-55.8457" stroke="none">Installation</text>
          </g>
        </g>
      </a>
    </g>
    <g onmouseout="HideTooltip(evt)" id="y.node.1" onmousemove="ShowTooltip(evt)">
      <a target="_blank" xlink:type="simple" xlink:href="/server-api.html" xlink:show="new">
        <g fill="url(#linearGradient2)" text-rendering="geometricPrecision" shape-rendering="geometricPrecision" transform="matrix(1,0,0,1,8,95)" stroke="url(#linearGradient2)">
          <ellipse rx="83" ry="45" cx="90" cy="360" stroke="none"/>
        </g>
        <g text-rendering="geometricPrecision" stroke-miterlimit="1.45" shape-rendering="geometricPrecision" transform="matrix(1,0,0,1,8,95)" stroke-linecap="butt">
          <ellipse rx="83" fill="none" ry="45" cx="90" cy="360"/>
        </g>
        <g>
          <g text-rendering="geometricPrecision" stroke-miterlimit="1.45" shape-rendering="geometricPrecision" font-family="sans-serif" transform="matrix(1,0,0,1,8,95)" stroke-linecap="butt">
            <text x="57.0176" xml:space="preserve" y="357.1699" stroke="none">Server API </text>
            <text x="61.7812" xml:space="preserve" y="371.1387" stroke="none">Port xxxx</text>
          </g>
        </g>
      </a>
    </g>
    <g onmouseout="HideTooltip(evt)" id="y.node.2" onmousemove="ShowTooltip(evt)">
      <a target="_blank" xlink:type="simple" xlink:href="/services/helper.html" xlink:show="new">
        <g fill="url(#linearGradient3)" text-rendering="geometricPrecision" shape-rendering="geometricPrecision" transform="matrix(1,0,0,1,8,95)" stroke="url(#linearGradient3)">
          <rect x="436" y="-20" width="186" rx="20" ry="20" height="40" stroke="none"/>
        </g>
        <g text-rendering="geometricPrecision" stroke-miterlimit="1.45" shape-rendering="geometricPrecision" transform="matrix(1,0,0,1,8,95)" stroke-linecap="butt">
          <rect x="436" y="-20" fill="none" width="186" rx="20" ry="20" height="40"/>
        </g>
        <g>
          <g text-rendering="geometricPrecision" stroke-miterlimit="1.45" shape-rendering="geometricPrecision" font-family="sans-serif" transform="matrix(1,0,0,1,8,95)" stroke-linecap="butt">
            <text x="509.1631" xml:space="preserve" y="4.1543" stroke="none">Helper</text>
          </g>
        </g>
      </a>
    </g>
    <g onmouseout="HideTooltip(evt)" id="y.node.3" onmousemove="ShowTooltip(evt)">
      <a target="_blank" xlink:type="simple" xlink:href="/services/hooks.html" xlink:show="new">
        <g fill="url(#linearGradient4)" text-rendering="geometricPrecision" shape-rendering="geometricPrecision" transform="matrix(1,0,0,1,8,95)" stroke="url(#linearGradient4)">
          <rect x="436" y="92" width="186" rx="20" ry="20" height="40" stroke="none"/>
        </g>
        <g text-rendering="geometricPrecision" stroke-miterlimit="1.45" shape-rendering="geometricPrecision" transform="matrix(1,0,0,1,8,95)" stroke-linecap="butt">
          <rect x="436" y="92" fill="none" width="186" rx="20" ry="20" height="40"/>
        </g>
        <g>
          <g text-rendering="geometricPrecision" stroke-miterlimit="1.45" shape-rendering="geometricPrecision" font-family="sans-serif" transform="matrix(1,0,0,1,8,95)" stroke-linecap="butt">
            <text x="510.5459" xml:space="preserve" y="116.1543" stroke="none">Hooks</text>
          </g>
        </g>
      </a>
    </g>
    <g onmouseout="HideTooltip(evt)" id="y.node.4" onmousemove="ShowTooltip(evt)">
      <a target="_blank" xlink:type="simple" xlink:href="/services/middleware.html" xlink:show="new">
        <g fill="url(#linearGradient5)" text-rendering="geometricPrecision" shape-rendering="geometricPrecision" transform="matrix(1,0,0,1,8,95)" stroke="url(#linearGradient5)">
          <rect x="436" y="204" width="186" rx="20" ry="20" height="40" stroke="none"/>
        </g>
        <g text-rendering="geometricPrecision" stroke-miterlimit="1.45" shape-rendering="geometricPrecision" transform="matrix(1,0,0,1,8,95)" stroke-linecap="butt">
          <rect x="436" y="204" fill="none" width="186" rx="20" ry="20" height="40"/>
        </g>
        <g>
          <g text-rendering="geometricPrecision" stroke-miterlimit="1.45" shape-rendering="geometricPrecision" font-family="sans-serif" transform="matrix(1,0,0,1,8,95)" stroke-linecap="butt">
            <text x="494.4385" xml:space="preserve" y="228.1543" stroke="none">Middleware</text>
          </g>
        </g>
      </a>
    </g>
    <g onmouseout="HideTooltip(evt)" id="y.node.5" onmousemove="ShowTooltip(evt)">
      <a target="_blank" xlink:type="simple" xlink:href="/services/models.html" xlink:show="new">
        <g fill="url(#linearGradient6)" text-rendering="geometricPrecision" shape-rendering="geometricPrecision" transform="matrix(1,0,0,1,8,95)" stroke="url(#linearGradient6)">
          <rect x="436" y="340" width="186" rx="20" ry="20" height="40" stroke="none"/>
        </g>
        <g text-rendering="geometricPrecision" stroke-miterlimit="1.45" shape-rendering="geometricPrecision" transform="matrix(1,0,0,1,8,95)" stroke-linecap="butt">
          <rect x="436" y="340" fill="none" width="186" rx="20" ry="20" height="40"/>
        </g>
        <g>
          <g text-rendering="geometricPrecision" stroke-miterlimit="1.45" shape-rendering="geometricPrecision" font-family="sans-serif" transform="matrix(1,0,0,1,8,95)" stroke-linecap="butt">
            <text x="507.8594" xml:space="preserve" y="364.1543" stroke="none">Models</text>
          </g>
        </g>
      </a>
    </g>
    <g onmouseout="HideTooltip(evt)" id="y.node.6" onmousemove="ShowTooltip(evt)">
      <a target="_blank" xlink:type="simple" xlink:href="/services/services.html" xlink:show="new">
        <g fill="url(#linearGradient7)" text-rendering="geometricPrecision" shape-rendering="geometricPrecision" transform="matrix(1,0,0,1,8,95)" stroke="url(#linearGradient7)">
          <rect x="436" y="476" width="186" rx="20" ry="20" height="40" stroke="none"/>
        </g>
        <g text-rendering="geometricPrecision" stroke-miterlimit="1.45" shape-rendering="geometricPrecision" transform="matrix(1,0,0,1,8,95)" stroke-linecap="butt">
          <rect x="436" y="476" fill="none" width="186" rx="20" ry="20" height="40"/>
        </g>
        <g>
          <g text-rendering="geometricPrecision" stroke-miterlimit="1.45" shape-rendering="geometricPrecision" font-family="sans-serif" transform="matrix(1,0,0,1,8,95)" stroke-linecap="butt">
            <text x="503.6992" xml:space="preserve" y="500.1543" stroke="none">Services</text>
          </g>
        </g>
      </a>
    </g>
    <g onmouseout="HideTooltip(evt)" id="y.node.7" onmousemove="ShowTooltip(evt)">
      <a target="_blank" xlink:type="simple" xlink:href="/services/node-modules.html" xlink:show="new">
        <g fill="url(#linearGradient8)" text-rendering="geometricPrecision" shape-rendering="geometricPrecision" transform="matrix(1,0,0,1,8,95)" stroke="url(#linearGradient8)">
          <rect x="436" y="730" width="186" rx="20" ry="20" height="40" stroke="none"/>
        </g>
        <g text-rendering="geometricPrecision" stroke-miterlimit="1.45" shape-rendering="geometricPrecision" transform="matrix(1,0,0,1,8,95)" stroke-linecap="butt">
          <rect x="436" y="730" fill="none" width="186" rx="20" ry="20" height="40"/>
        </g>
        <g>
          <g text-rendering="geometricPrecision" stroke-miterlimit="1.45" shape-rendering="geometricPrecision" font-family="sans-serif" transform="matrix(1,0,0,1,8,95)" stroke-linecap="butt">
            <text x="486.4902" xml:space="preserve" y="754.1543" stroke="none">Node Modules</text>
          </g>
        </g>
      </a>
    </g>
    <g id="y.edge.5">
      <g text-rendering="geometricPrecision" stroke-miterlimit="1.45" shape-rendering="geometricPrecision" transform="matrix(1,0,0,1,8,95)" stroke-linecap="butt">
        <path fill="none" d="M123.8508 318.9075 L430.8966 -53.8253"/>
      </g>
      <g text-rendering="geometricPrecision" stroke-miterlimit="1.45" shape-rendering="geometricPrecision" transform="matrix(1,0,0,1,8,95)" stroke-linecap="butt">
        <path d="M435.9832 -60 L424.4941 -53.917 L430.2608 -53.0534 L432.2125 -47.5588 Z" stroke="none"/>
      </g>
    </g>
    <g id="y.edge.4">
      <g text-rendering="geometricPrecision" stroke-miterlimit="1.45" shape-rendering="geometricPrecision" transform="matrix(1,0,0,1,8,95)" stroke-linecap="butt">
        <path fill="none" d="M128.3698 320.0757 L430.4397 5.768"/>
        <path d="M435.9832 0 L424.063 5.1874 L429.7468 6.489 L431.273 12.1167 Z" stroke="none"/>
      </g>
    </g>
    <g id="y.edge.0">
      <g text-rendering="geometricPrecision" stroke-miterlimit="1.45" shape-rendering="geometricPrecision" transform="matrix(1,0,0,1,8,95)" stroke-linecap="butt">
        <path fill="none" d="M140.0687 324.1108 L429.481 116.6607"/>
        <path d="M435.9832 112 L423.317 114.9272 L428.6682 117.2433 L429.1429 123.0549 Z" stroke="none"/>
      </g>
    </g>
    <g id="y.edge.1">
      <g text-rendering="geometricPrecision" stroke-miterlimit="1.45" shape-rendering="geometricPrecision" transform="matrix(1,0,0,1,8,95)" stroke-linecap="butt">
        <path fill="none" d="M157.1947 333.5869 L428.5377 226.9267"/>
        <path d="M435.9832 224 L422.9858 223.7366 L427.607 227.2925 L426.6442 233.0434 Z" stroke="none"/>
      </g>
    </g>
    <g id="y.edge.2">
      <g text-rendering="geometricPrecision" stroke-miterlimit="1.45" shape-rendering="geometricPrecision" transform="matrix(1,0,0,1,8,95)" stroke-linecap="butt">
        <path fill="none" d="M172.9824 360 L428.0408 360"/>
        <path d="M436.0408 360 L424.0408 355 L427.0408 360 L424.0408 365 Z" stroke="none"/>
      </g>
    </g>
    <g id="y.edge.3">
      <g text-rendering="geometricPrecision" stroke-miterlimit="1.45" shape-rendering="geometricPrecision" transform="matrix(1,0,0,1,8,95)" stroke-linecap="butt">
        <path fill="none" d="M157.1947 386.4131 L428.5377 493.0733"/>
        <path d="M435.9832 496 L426.6442 486.9566 L427.607 492.7075 L422.9858 496.2634 Z" stroke="none"/>
      </g>
    </g>
    <g id="y.edge.6">
      <g text-rendering="geometricPrecision" stroke-miterlimit="1.45" shape-rendering="geometricPrecision" transform="matrix(1,0,0,1,8,95)" stroke-linecap="butt">
        <path fill="none" d="M125.9625 400.5377 L430.6741 744.0155"/>
        <path d="M435.9832 750 L431.7599 737.7051 L430.0105 743.2675 L424.2793 744.3414 Z" stroke="none"/>
      </g>
    </g>
    <g visibility="hidden" id="tooltip.y.node.0" pointer-events="none">
      <g fill="rgb(195,212,232)" text-rendering="geometricPrecision" shape-rendering="geometricPrecision" font-family="sans-serif" stroke="rgb(195,212,232)">
        <rect x="0" width="185" height="17" y="0" clip-path="url(#clipPath2)" stroke="none"/>
        <text fill="black" x="4" xml:space="preserve" y="13" clip-path="url(#clipPath2)" stroke="none">Installation of the Server API</text>
      </g>
      <g fill="rgb(49,106,196)" text-rendering="geometricPrecision" shape-rendering="geometricPrecision" font-family="sans-serif" stroke="rgb(49,106,196)">
        <path d="M0 0 L185 0 L185 17 L0 17 L0 0 ZM1 1 L184 1 L184 16 L1 16 L1 1 Z" fill-rule="evenodd" clip-path="url(#clipPath2)" stroke="none"/>
      </g>
    </g>
    <g visibility="hidden" id="tooltip.y.node.1" pointer-events="none">
      <g fill="rgb(195,212,232)" text-rendering="geometricPrecision" shape-rendering="geometricPrecision" font-family="sans-serif" stroke="rgb(195,212,232)">
        <rect x="0" width="93" height="17" y="0" clip-path="url(#clipPath3)" stroke="none"/>
        <text fill="black" x="4" xml:space="preserve" y="13" clip-path="url(#clipPath3)" stroke="none">nodejs server</text>
      </g>
      <g fill="rgb(49,106,196)" text-rendering="geometricPrecision" shape-rendering="geometricPrecision" font-family="sans-serif" stroke="rgb(49,106,196)">
        <path d="M0 0 L93 0 L93 17 L0 17 L0 0 ZM1 1 L92 1 L92 16 L1 16 L1 1 Z" fill-rule="evenodd" clip-path="url(#clipPath3)" stroke="none"/>
      </g>
    </g>
    <g visibility="hidden" id="tooltip.y.node.2" pointer-events="none">
      <g fill="rgb(195,212,232)" text-rendering="geometricPrecision" shape-rendering="geometricPrecision" font-family="sans-serif" stroke="rgb(195,212,232)">
        <rect x="0" width="111" height="17" y="0" clip-path="url(#clipPath4)" stroke="none"/>
        <text fill="black" x="4" xml:space="preserve" y="13" clip-path="url(#clipPath4)" stroke="none">helping js-hands</text>
      </g>
      <g fill="rgb(49,106,196)" text-rendering="geometricPrecision" shape-rendering="geometricPrecision" font-family="sans-serif" stroke="rgb(49,106,196)">
        <path d="M0 0 L111 0 L111 17 L0 17 L0 0 ZM1 1 L110 1 L110 16 L1 16 L1 1 Z" fill-rule="evenodd" clip-path="url(#clipPath4)" stroke="none"/>
      </g>
    </g>
    <g visibility="hidden" id="tooltip.y.node.3" pointer-events="none">
      <g fill="rgb(195,212,232)" text-rendering="geometricPrecision" shape-rendering="geometricPrecision" font-family="sans-serif" stroke="rgb(195,212,232)">
        <rect x="0" width="191" height="17" y="0" clip-path="url(#clipPath5)" stroke="none"/>
        <text fill="black" x="4" xml:space="preserve" y="13" clip-path="url(#clipPath5)" stroke="none">do sth. before/after requests</text>
      </g>
      <g fill="rgb(49,106,196)" text-rendering="geometricPrecision" shape-rendering="geometricPrecision" font-family="sans-serif" stroke="rgb(49,106,196)">
        <path d="M0 0 L191 0 L191 17 L0 17 L0 0 ZM1 1 L190 1 L190 16 L1 16 L1 1 Z" fill-rule="evenodd" clip-path="url(#clipPath5)" stroke="none"/>
      </g>
    </g>
    <g visibility="hidden" id="tooltip.y.node.4" pointer-events="none">
      <g fill="rgb(195,212,232)" text-rendering="geometricPrecision" shape-rendering="geometricPrecision" font-family="sans-serif" stroke="rgb(195,212,232)">
        <rect x="0" width="129" height="17" y="0" clip-path="url(#clipPath6)" stroke="none"/>
        <text fill="black" x="4" xml:space="preserve" y="13" clip-path="url(#clipPath6)" stroke="none">custom middleware</text>
      </g>
      <g fill="rgb(49,106,196)" text-rendering="geometricPrecision" shape-rendering="geometricPrecision" font-family="sans-serif" stroke="rgb(49,106,196)">
        <path d="M0 0 L129 0 L129 17 L0 17 L0 0 ZM1 1 L128 1 L128 16 L1 16 L1 1 Z" fill-rule="evenodd" clip-path="url(#clipPath6)" stroke="none"/>
      </g>
    </g>
    <g visibility="hidden" id="tooltip.y.node.5" pointer-events="none">
      <g fill="rgb(195,212,232)" text-rendering="geometricPrecision" shape-rendering="geometricPrecision" font-family="sans-serif" stroke="rgb(195,212,232)">
        <rect x="0" width="86" height="17" y="0" clip-path="url(#clipPath7)" stroke="none"/>
        <text fill="black" x="4" xml:space="preserve" y="13" clip-path="url(#clipPath7)" stroke="none">data models</text>
      </g>
      <g fill="rgb(49,106,196)" text-rendering="geometricPrecision" shape-rendering="geometricPrecision" font-family="sans-serif" stroke="rgb(49,106,196)">
        <path d="M0 0 L86 0 L86 17 L0 17 L0 0 ZM1 1 L85 1 L85 16 L1 16 L1 1 Z" fill-rule="evenodd" clip-path="url(#clipPath7)" stroke="none"/>
      </g>
    </g>
    <g visibility="hidden" id="tooltip.y.node.6" pointer-events="none">
      <g fill="rgb(195,212,232)" text-rendering="geometricPrecision" shape-rendering="geometricPrecision" font-family="sans-serif" stroke="rgb(195,212,232)">
        <rect x="0" width="59" height="17" y="0" clip-path="url(#clipPath8)" stroke="none"/>
        <text fill="black" x="4" xml:space="preserve" y="13" clip-path="url(#clipPath8)" stroke="none">services</text>
      </g>
      <g fill="rgb(49,106,196)" text-rendering="geometricPrecision" shape-rendering="geometricPrecision" font-family="sans-serif" stroke="rgb(49,106,196)">
        <path d="M0 0 L59 0 L59 17 L0 17 L0 0 ZM1 1 L58 1 L58 16 L1 16 L1 1 Z" fill-rule="evenodd" clip-path="url(#clipPath8)" stroke="none"/>
      </g>
    </g>
    <g visibility="hidden" id="tooltip.y.node.7" pointer-events="none">
      <g fill="rgb(195,212,232)" text-rendering="geometricPrecision" shape-rendering="geometricPrecision" font-family="sans-serif" stroke="rgb(195,212,232)">
        <rect x="0" width="97" height="17" y="0" clip-path="url(#clipPath9)" stroke="none"/>
        <text fill="black" x="4" xml:space="preserve" y="13" clip-path="url(#clipPath9)" stroke="none">Node Modules</text>
      </g>
      <g fill="rgb(49,106,196)" text-rendering="geometricPrecision" shape-rendering="geometricPrecision" font-family="sans-serif" stroke="rgb(49,106,196)">
        <path d="M0 0 L97 0 L97 17 L0 17 L0 0 ZM1 1 L96 1 L96 16 L1 16 L1 1 Z" fill-rule="evenodd" clip-path="url(#clipPath9)" stroke="none"/>
      </g>
    </g>
  </g>
</svg>
