<?xml version="1.0" encoding="UTF-8"?><svg xmlns="http://www.w3.org/2000/svg" xmlns:xlink="http://www.w3.org/1999/xlink" fill-opacity="1" color-rendering="auto" color-interpolation="auto" text-rendering="auto" stroke="black" stroke-linecap="square" width="645" stroke-miterlimit="10" shape-rendering="auto" stroke-opacity="1" fill="black" stroke-dasharray="none" font-weight="normal" stroke-width="1" height="880" font-family="'Dialog'" font-style="normal" stroke-linejoin="miter" font-size="12px" stroke-dashoffset="0" image-rendering="auto">
  <!--Generated by ySVG 2.5-->
  <defs id="genericDefs"/>
  <g>
    <defs id="defs1">
      <linearGradient x1="436" gradientUnits="userSpaceOnUse" x2="622" y1="-80" y2="-40" id="linearGradient1" spreadMethod="reflect">
        <stop stop-opacity="1" stop-color="rgb(204,255,204)" offset="0%"/>
        <stop stop-opacity="1" stop-color="rgb(153,255,204)" offset="100%"/>
      </linearGradient>
      <linearGradient x1="7" gradientUnits="userSpaceOnUse" x2="173" y1="315" y2="405" id="linearGradient2" spreadMethod="reflect">
        <stop stop-opacity="1" stop-color="rgb(204,255,204)" offset="0%"/>
        <stop stop-opacity="1" stop-color="rgb(153,255,204)" offset="100%"/>
      </linearGradient>
      <linearGradient x1="436" gradientUnits="userSpaceOnUse" x2="622" y1="-20" y2="20" id="linearGradient3" spreadMethod="reflect">
        <stop stop-opacity="1" stop-color="rgb(204,255,204)" offset="0%"/>
        <stop stop-opacity="1" stop-color="rgb(153,255,204)" offset="100%"/>
      </linearGradient>
      <linearGradient x1="436" gradientUnits="userSpaceOnUse" x2="622" y1="92" y2="132" id="linearGradient4" spreadMethod="reflect">
        <stop stop-opacity="1" stop-color="rgb(204,255,204)" offset="0%"/>
        <stop stop-opacity="1" stop-color="rgb(153,255,204)" offset="100%"/>
      </linearGradient>
      <linearGradient x1="436" gradientUnits="userSpaceOnUse" x2="622" y1="204" y2="244" id="linearGradient5" spreadMethod="reflect">
        <stop stop-opacity="1" stop-color="rgb(204,255,204)" offset="0%"/>
        <stop stop-opacity="1" stop-color="rgb(153,255,204)" offset="100%"/>
      </linearGradient>
      <linearGradient x1="436" gradientUnits="userSpaceOnUse" x2="622" y1="340" y2="380" id="linearGradient6" spreadMethod="reflect">
        <stop stop-opacity="1" stop-color="rgb(204,255,204)" offset="0%"/>
        <stop stop-opacity="1" stop-color="rgb(153,255,204)" offset="100%"/>
      </linearGradient>
      <linearGradient x1="436" gradientUnits="userSpaceOnUse" x2="622" y1="476" y2="516" id="linearGradient7" spreadMethod="reflect">
        <stop stop-opacity="1" stop-color="rgb(204,255,204)" offset="0%"/>
        <stop stop-opacity="1" stop-color="rgb(153,255,204)" offset="100%"/>
      </linearGradient>
      <linearGradient x1="436" gradientUnits="userSpaceOnUse" x2="622" y1="730" y2="770" id="linearGradient8" spreadMethod="reflect">
        <stop stop-opacity="1" stop-color="rgb(204,255,204)" offset="0%"/>
        <stop stop-opacity="1" stop-color="rgb(153,255,204)" offset="100%"/>
      </linearGradient>
      <clipPath clipPathUnits="userSpaceOnUse" id="clipPath1">
        <path d="M0 0 L645 0 L645 880 L0 880 L0 0 Z"/>
      </clipPath>
      <clipPath clipPathUnits="userSpaceOnUse" id="clipPath2">
        <path d="M-8 -95 L637 -95 L637 785 L-8 785 L-8 -95 Z"/>
      </clipPath>
    </defs>
    <g fill="white" text-rendering="geometricPrecision" shape-rendering="geometricPrecision" transform="translate(8,95)" stroke="white">
      <rect x="-8" width="645" height="880" y="-95" clip-path="url(#clipPath2)" stroke="none"/>
    </g>
    <g fill="url(#linearGradient1)" text-rendering="geometricPrecision" shape-rendering="geometricPrecision" transform="matrix(1,0,0,1,8,95)" stroke="url(#linearGradient1)">
      <rect x="436" y="-80" clip-path="url(#clipPath2)" width="186" rx="20" ry="20" height="40" stroke="none"/>
    </g>
    <g text-rendering="geometricPrecision" stroke-miterlimit="1.45" shape-rendering="geometricPrecision" transform="matrix(1,0,0,1,8,95)" stroke-linecap="butt">
      <rect x="436" y="-80" clip-path="url(#clipPath2)" fill="none" width="186" rx="20" ry="20" height="40"/>
      <text x="495.7686" xml:space="preserve" y="-55.8457" clip-path="url(#clipPath2)" font-family="sans-serif" stroke="none">Installation</text>
    </g>
    <g fill="url(#linearGradient2)" text-rendering="geometricPrecision" shape-rendering="geometricPrecision" transform="matrix(1,0,0,1,8,95)" stroke="url(#linearGradient2)">
      <ellipse rx="83" ry="45" clip-path="url(#clipPath2)" cx="90" cy="360" stroke="none"/>
    </g>
    <g text-rendering="geometricPrecision" stroke-miterlimit="1.45" shape-rendering="geometricPrecision" transform="matrix(1,0,0,1,8,95)" stroke-linecap="butt">
      <ellipse rx="83" fill="none" ry="45" clip-path="url(#clipPath2)" cx="90" cy="360"/>
      <text x="57.0176" xml:space="preserve" y="357.1699" clip-path="url(#clipPath2)" font-family="sans-serif" stroke="none">Server API </text>
      <text x="61.7812" xml:space="preserve" y="371.1387" clip-path="url(#clipPath2)" font-family="sans-serif" stroke="none">Port xxxx</text>
    </g>
    <g fill="url(#linearGradient3)" text-rendering="geometricPrecision" shape-rendering="geometricPrecision" transform="matrix(1,0,0,1,8,95)" stroke="url(#linearGradient3)">
      <rect x="436" y="-20" clip-path="url(#clipPath2)" width="186" rx="20" ry="20" height="40" stroke="none"/>
    </g>
    <g text-rendering="geometricPrecision" stroke-miterlimit="1.45" shape-rendering="geometricPrecision" transform="matrix(1,0,0,1,8,95)" stroke-linecap="butt">
      <rect x="436" y="-20" clip-path="url(#clipPath2)" fill="none" width="186" rx="20" ry="20" height="40"/>
      <text x="509.1631" xml:space="preserve" y="4.1543" clip-path="url(#clipPath2)" font-family="sans-serif" stroke="none">Helper</text>
    </g>
    <g fill="url(#linearGradient4)" text-rendering="geometricPrecision" shape-rendering="geometricPrecision" transform="matrix(1,0,0,1,8,95)" stroke="url(#linearGradient4)">
      <rect x="436" y="92" clip-path="url(#clipPath2)" width="186" rx="20" ry="20" height="40" stroke="none"/>
    </g>
    <g text-rendering="geometricPrecision" stroke-miterlimit="1.45" shape-rendering="geometricPrecision" transform="matrix(1,0,0,1,8,95)" stroke-linecap="butt">
      <rect x="436" y="92" clip-path="url(#clipPath2)" fill="none" width="186" rx="20" ry="20" height="40"/>
      <text x="510.5459" xml:space="preserve" y="116.1543" clip-path="url(#clipPath2)" font-family="sans-serif" stroke="none">Hooks</text>
    </g>
    <g fill="url(#linearGradient5)" text-rendering="geometricPrecision" shape-rendering="geometricPrecision" transform="matrix(1,0,0,1,8,95)" stroke="url(#linearGradient5)">
      <rect x="436" y="204" clip-path="url(#clipPath2)" width="186" rx="20" ry="20" height="40" stroke="none"/>
    </g>
    <g text-rendering="geometricPrecision" stroke-miterlimit="1.45" shape-rendering="geometricPrecision" transform="matrix(1,0,0,1,8,95)" stroke-linecap="butt">
      <rect x="436" y="204" clip-path="url(#clipPath2)" fill="none" width="186" rx="20" ry="20" height="40"/>
      <text x="494.4385" xml:space="preserve" y="228.1543" clip-path="url(#clipPath2)" font-family="sans-serif" stroke="none">Middleware</text>
    </g>
    <g fill="url(#linearGradient6)" text-rendering="geometricPrecision" shape-rendering="geometricPrecision" transform="matrix(1,0,0,1,8,95)" stroke="url(#linearGradient6)">
      <rect x="436" y="340" clip-path="url(#clipPath2)" width="186" rx="20" ry="20" height="40" stroke="none"/>
    </g>
    <g text-rendering="geometricPrecision" stroke-miterlimit="1.45" shape-rendering="geometricPrecision" transform="matrix(1,0,0,1,8,95)" stroke-linecap="butt">
      <rect x="436" y="340" clip-path="url(#clipPath2)" fill="none" width="186" rx="20" ry="20" height="40"/>
      <text x="507.8594" xml:space="preserve" y="364.1543" clip-path="url(#clipPath2)" font-family="sans-serif" stroke="none">Models</text>
    </g>
    <g fill="url(#linearGradient7)" text-rendering="geometricPrecision" shape-rendering="geometricPrecision" transform="matrix(1,0,0,1,8,95)" stroke="url(#linearGradient7)">
      <rect x="436" y="476" clip-path="url(#clipPath2)" width="186" rx="20" ry="20" height="40" stroke="none"/>
    </g>
    <g text-rendering="geometricPrecision" stroke-miterlimit="1.45" shape-rendering="geometricPrecision" transform="matrix(1,0,0,1,8,95)" stroke-linecap="butt">
      <rect x="436" y="476" clip-path="url(#clipPath2)" fill="none" width="186" rx="20" ry="20" height="40"/>
      <text x="503.6992" xml:space="preserve" y="500.1543" clip-path="url(#clipPath2)" font-family="sans-serif" stroke="none">Services</text>
    </g>
    <g fill="url(#linearGradient8)" text-rendering="geometricPrecision" shape-rendering="geometricPrecision" transform="matrix(1,0,0,1,8,95)" stroke="url(#linearGradient8)">
      <rect x="436" y="730" clip-path="url(#clipPath2)" width="186" rx="20" ry="20" height="40" stroke="none"/>
    </g>
    <g text-rendering="geometricPrecision" stroke-miterlimit="1.45" shape-rendering="geometricPrecision" transform="matrix(1,0,0,1,8,95)" stroke-linecap="butt">
      <rect x="436" y="730" clip-path="url(#clipPath2)" fill="none" width="186" rx="20" ry="20" height="40"/>
      <text x="486.4902" xml:space="preserve" y="754.1543" clip-path="url(#clipPath2)" font-family="sans-serif" stroke="none">Node Modules</text>
    </g>
    <g text-rendering="geometricPrecision" stroke-miterlimit="1.45" shape-rendering="geometricPrecision" transform="matrix(1,0,0,1,8,95)" stroke-linecap="butt">
      <path fill="none" d="M123.8508 318.9075 L430.8966 -53.8253" clip-path="url(#clipPath2)"/>
    </g>
    <g text-rendering="geometricPrecision" stroke-miterlimit="1.45" shape-rendering="geometricPrecision" transform="matrix(1,0,0,1,8,95)" stroke-linecap="butt">
      <path d="M435.9832 -60 L424.4941 -53.917 L430.2608 -53.0534 L432.2125 -47.5588 Z" stroke="none" clip-path="url(#clipPath2)"/>
      <path fill="none" d="M128.3698 320.0757 L430.4397 5.768" clip-path="url(#clipPath2)"/>
      <path d="M435.9832 0 L424.063 5.1874 L429.7468 6.489 L431.273 12.1167 Z" clip-path="url(#clipPath2)" stroke="none"/>
      <path fill="none" d="M140.0687 324.1108 L429.481 116.6607" clip-path="url(#clipPath2)"/>
      <path d="M435.9832 112 L423.317 114.9272 L428.6682 117.2433 L429.1429 123.0549 Z" clip-path="url(#clipPath2)" stroke="none"/>
      <path fill="none" d="M157.1947 333.5869 L428.5377 226.9267" clip-path="url(#clipPath2)"/>
      <path d="M435.9832 224 L422.9858 223.7366 L427.607 227.2925 L426.6442 233.0434 Z" clip-path="url(#clipPath2)" stroke="none"/>
      <path fill="none" d="M172.9824 360 L428.0408 360" clip-path="url(#clipPath2)"/>
      <path d="M436.0408 360 L424.0408 355 L427.0408 360 L424.0408 365 Z" clip-path="url(#clipPath2)" stroke="none"/>
      <path fill="none" d="M157.1947 386.4131 L428.5377 493.0733" clip-path="url(#clipPath2)"/>
      <path d="M435.9832 496 L426.6442 486.9566 L427.607 492.7075 L422.9858 496.2634 Z" clip-path="url(#clipPath2)" stroke="none"/>
      <path fill="none" d="M125.9625 400.5377 L430.6741 744.0155" clip-path="url(#clipPath2)"/>
      <path d="M435.9832 750 L431.7599 737.7051 L430.0105 743.2675 L424.2793 744.3414 Z" clip-path="url(#clipPath2)" stroke="none"/>
    </g>
  </g>
</svg>
